<?xml version="1.0" encoding="utf-8"?>
<!-- Generator: Adobe Illustrator 27.6.1, SVG Export Plug-In . SVG Version: 6.00 Build 0)  -->
<svg version="1.1" id="Layer_1" xmlns="http://www.w3.org/2000/svg" xmlns:xlink="http://www.w3.org/1999/xlink" x="0px" y="0px"
	 viewBox="0 0 50 50" style="enable-background:new 0 0 50 50;" xml:space="preserve">
<style type="text/css">
	.st0{fill:#E07A26;}
	.st1{fill:#A75625;}
	.st2{fill:#631E11;}
	.st3{opacity:0.6;fill:#DCDBDB;}
	.st4{fill:#DCDBDB;}
	.st5{fill:#CFCFCE;}
	.st6{opacity:0.1;fill:#FFFFFF;}
	.st7{opacity:0.2;fill:#FFFFFF;}
	.st8{opacity:0.6;fill:#FFFFFF;}
	.st9{fill:#FFFFFF;}
</style>
<g>
	<path class="st0" d="M0.74,25.41c0,0.2,0,0.41,0.01,0.61C1.07,39.13,11.81,49.67,25,49.67c7.41,0,14.05-3.33,18.5-8.57
		c2.41-2.84,4.17-6.23,5.08-9.96c0.03-0.12,0.06-0.24,0.08-0.36c0.32-1.42,0.52-2.89,0.57-4.4c0-0.01,0-0.03,0-0.04
		c0.02-0.31,0.02-0.62,0.02-0.93C49.26,12.01,38.4,1.15,25,1.15c-9.78,0-18.22,5.79-22.05,14.14c-0.92,2.01-1.58,4.16-1.93,6.42
		c0,0.02-0.01,0.03-0.01,0.05c0,0.01,0,0.01,0,0.02C1.01,21.8,1,21.82,1,21.85c-0.09,0.62-0.16,1.24-0.2,1.87
		C0.76,24.28,0.74,24.84,0.74,25.41z"/>
	<path class="st1" d="M0.74,25.41c0,0.2,0,0.41,0.01,0.61C1.07,39.13,11.81,49.67,25,49.67c7.41,0,14.05-3.33,18.5-8.57
		c-1.57-0.4-4.2-1.91-8.61-6.07c-9.76-9.22-11.93-12.47-19.24-9.76C8.43,27.95,1.2,21.91,1.02,21.75c0,0,0,0,0,0L1,21.85l-0.2,1.87
		C0.76,24.28,0.74,24.84,0.74,25.41z"/>
	<path class="st2" d="M1.01,21.77c3.49,3.04,9.6,5.34,14.37,1.33c6.78-5.69,11.65-2.71,22.23,5.96c5.18,4.25,8.67,3.81,10.97,2.07
		c0.03-0.12,0.06-0.24,0.08-0.36c0.32-1.42,0.52-2.89,0.57-4.4c0-0.01,0-0.03,0-0.04c0.02-0.31,0.02-0.62,0.02-0.93
		C49.26,12.01,38.4,1.15,25,1.15c-9.78,0-18.22,5.79-22.05,14.14c-0.92,2.01-1.58,4.16-1.93,6.42C1.02,21.73,1.02,21.75,1.01,21.77z
		"/>
	<path class="st3" d="M34.06,40.99c10.21-7.59,13.21-18.95,9.78-30.86c3.39,4.17,5.42,9.49,5.42,15.28c0,0.31-0.01,0.62-0.02,0.93
		c0,0.01,0,0.03,0,0.04c-0.05,1.51-0.25,2.98-0.57,4.4c-0.03,0.12-0.05,0.24-0.08,0.36C46,41.77,36.42,49.67,25,49.67
		c-6.77,0-12.89-2.77-17.29-7.25C18.44,47.58,27.26,46.04,34.06,40.99z"/>
	<path class="st4" d="M45.26,12.08c2.52,3.83,3.99,8.41,3.99,13.33c0,0.31-0.01,0.62-0.02,0.93c0,0.01,0,0.03,0,0.04
		c-0.05,1.51-0.25,2.98-0.57,4.4c-0.03,0.12-0.05,0.24-0.08,0.36C46,41.77,36.42,49.67,25,49.67c-4.69,0-9.07-1.33-12.78-3.64
		C31.64,53.15,54.11,39.42,45.26,12.08z"/>
	<g>
		<path class="st5" d="M4.54,17.14c0,1.05,0.85,1.9,1.9,1.9c1.05,0,1.9-0.85,1.9-1.9c0-1.05-0.85-1.9-1.9-1.9
			C5.39,15.25,4.54,16.09,4.54,17.14z"/>
		<path class="st5" d="M4.88,17.14c0,0.86,0.7,1.55,1.55,1.55c0.86,0,1.55-0.69,1.55-1.55c0-0.86-0.7-1.55-1.55-1.55
			C5.58,15.59,4.88,16.29,4.88,17.14z"/>
	</g>
	<g>
		<path class="st5" d="M12.94,9.55c0,1.05,0.85,1.9,1.9,1.9c1.05,0,1.9-0.85,1.9-1.9c0-1.05-0.85-1.9-1.9-1.9
			C13.79,7.66,12.94,8.51,12.94,9.55z"/>
		<path class="st5" d="M13.28,9.55c0,0.86,0.69,1.55,1.55,1.55c0.86,0,1.55-0.7,1.55-1.55S15.69,8,14.84,8
			C13.98,8,13.28,8.7,13.28,9.55z"/>
	</g>
	<g>
		<path class="st5" d="M13.75,17.14c0,1.05,0.85,1.9,1.9,1.9c1.05,0,1.9-0.85,1.9-1.9c0-1.05-0.85-1.9-1.9-1.9
			C14.6,15.25,13.75,16.09,13.75,17.14z"/>
		<path class="st5" d="M14.1,17.14c0,0.86,0.69,1.55,1.55,1.55c0.86,0,1.55-0.69,1.55-1.55c0-0.86-0.69-1.55-1.55-1.55
			C14.79,15.59,14.1,16.29,14.1,17.14z"/>
	</g>
	<g>
		<path class="st5" d="M26.22,4.95c0,1.05,0.85,1.9,1.9,1.9c1.05,0,1.9-0.85,1.9-1.9c0-1.05-0.85-1.9-1.9-1.9
			C27.07,3.05,26.22,3.9,26.22,4.95z"/>
		<circle class="st5" cx="28.12" cy="4.95" r="1.55"/>
	</g>
	<g>
		<path class="st5" d="M20.53,11.99c0,1.05,0.85,1.9,1.9,1.9c1.05,0,1.9-0.85,1.9-1.9c0-1.05-0.85-1.9-1.9-1.9
			C21.38,10.1,20.53,10.94,20.53,11.99z"/>
		<path class="st5" d="M20.87,11.99c0,0.86,0.7,1.55,1.55,1.55c0.86,0,1.55-0.7,1.55-1.55c0-0.86-0.7-1.55-1.55-1.55
			C21.57,10.44,20.87,11.14,20.87,11.99z"/>
	</g>
	<g>
		<path class="st5" d="M31.64,11.45c0,1.05,0.85,1.9,1.9,1.9c1.05,0,1.9-0.85,1.9-1.9c0-1.05-0.85-1.9-1.9-1.9
			C32.49,9.55,31.64,10.4,31.64,11.45z"/>
		<path class="st5" d="M31.99,11.45c0,0.86,0.7,1.55,1.55,1.55s1.55-0.7,1.55-1.55c0-0.86-0.7-1.55-1.55-1.55
			S31.99,10.59,31.99,11.45z"/>
	</g>
	<g>
		<path class="st5" d="M33,22.02c0,1.05,0.85,1.9,1.9,1.9c1.05,0,1.9-0.85,1.9-1.9c0-1.05-0.85-1.9-1.9-1.9
			C33.85,20.12,33,20.97,33,22.02z"/>
		<path class="st5" d="M33.34,22.02c0,0.86,0.7,1.55,1.55,1.55c0.86,0,1.55-0.7,1.55-1.55c0-0.86-0.7-1.55-1.55-1.55
			C34.04,20.47,33.34,21.16,33.34,22.02z"/>
	</g>
	<g>
		<path class="st5" d="M43.02,23.65c0,1.05,0.85,1.9,1.9,1.9c1.05,0,1.9-0.85,1.9-1.9c0-1.05-0.85-1.9-1.9-1.9
			C43.87,21.75,43.02,22.6,43.02,23.65z"/>
		<circle class="st5" cx="44.92" cy="23.65" r="1.55"/>
	</g>
	<g>
		<path class="st5" d="M38.15,14.97c0,1.05,0.85,1.9,1.9,1.9c1.05,0,1.9-0.85,1.9-1.9c0-1.05-0.85-1.9-1.9-1.9
			C38.99,13.08,38.15,13.93,38.15,14.97z"/>
		<path class="st5" d="M38.49,14.97c0,0.86,0.7,1.55,1.55,1.55s1.55-0.7,1.55-1.55c0-0.86-0.7-1.55-1.55-1.55
			S38.49,14.12,38.49,14.97z"/>
	</g>
	<g>
		<path class="st6" d="M13.2,41.13c4.2,0.26,2.14-7.01,13.29-17.21C36.25,15,43.2,17.08,43.1,13.43C42.95,7.81,33.85,2.32,25.73,2
			c-11.48-0.46-24.1,9.29-24.4,21.1C1.12,31.45,7.07,40.75,13.2,41.13z"/>
		<path class="st6" d="M25.05,1.56c6.55-0.07,13.68,3.09,13.29,5.41c-0.22,1.35-8.89,0.54-19.38,10.36
			C8.15,27.47,9.72,37.64,8.15,37.84c-1.8,0.23-7.74-8.58-6.76-16.67C2.76,9.83,14.68,1.67,25.05,1.56z"/>
		<path class="st7" d="M34.06,5.23c0.08-0.73-5.08-2.9-10.76-2.48C15.21,3.35,6.74,9.13,3.91,17.37C1.62,24.02,3.5,30.82,4.32,30.85
			c0.78,0.03,0.21-5.93,3.97-12.46c4.76-8.25,13.12-10.8,14.09-11.11C28.73,5.26,33.97,5.95,34.06,5.23z"/>
		<path class="st8" d="M22.16,3.47c1.54-0.18,4.58,0.3,3.45,0.75c-1.13,0.45-4.99,1.31-10.66,4.81c-1.95,1.2-3.46-0.23-2.55-1.2
			C13.29,6.85,17.72,3.99,22.16,3.47z"/>
		<path class="st8" d="M10.06,9.75c0.54-0.45,2.77,0.22,2.4,0.53c-3.3,2.78-5.33,5.33-7.13,9.31C3.53,23.57,4.66,14.26,10.06,9.75z"
			/>
	</g>
	<path class="st9" d="M45.74,40.45c0,0-0.18,0.21-0.45,0.54C45.65,40.76,45.74,40.45,45.74,40.45z"/>
</g>
</svg>
