<?xml version="1.0" encoding="utf-8"?>
<!-- Generator: Adobe Illustrator 27.6.1, SVG Export Plug-In . SVG Version: 6.00 Build 0)  -->
<svg version="1.1" id="Layer_1" xmlns="http://www.w3.org/2000/svg" xmlns:xlink="http://www.w3.org/1999/xlink" x="0px" y="0px"
	 viewBox="0 0 80 80" style="enable-background:new 0 0 80 80;" xml:space="preserve">
<style type="text/css">
	.st0{fill-rule:evenodd;clip-rule:evenodd;fill:url(#SVGID_1_);}
	.st1{fill-rule:evenodd;clip-rule:evenodd;fill:url(#SVGID_00000168823562055408199940000000111569800971696781_);}
	.st2{fill-rule:evenodd;clip-rule:evenodd;fill:url(#SVGID_00000037686114918253918300000014895268319157481622_);}
	.st3{opacity:0.5;fill-rule:evenodd;clip-rule:evenodd;fill:url(#SVGID_00000013907575094817114990000013807948870984891327_);}
	.st4{opacity:0.5;fill-rule:evenodd;clip-rule:evenodd;fill:url(#SVGID_00000047054917127860580000000011079532012859047341_);}
	.st5{opacity:0.5;fill-rule:evenodd;clip-rule:evenodd;fill:url(#SVGID_00000010292426913084944920000006613251885521817258_);}
	.st6{opacity:0.91;fill-rule:evenodd;clip-rule:evenodd;fill:url(#SVGID_00000160869129036452652070000014160274823643691145_);}
	.st7{opacity:0.71;fill-rule:evenodd;clip-rule:evenodd;fill:url(#SVGID_00000033365410987793181830000009181693062245397934_);}
	.st8{fill-rule:evenodd;clip-rule:evenodd;fill:url(#SVGID_00000117673869688400280270000012259560375579538876_);}
	.st9{fill-rule:evenodd;clip-rule:evenodd;fill:url(#SVGID_00000114784988542845635990000007371649279868808363_);}
	.st10{fill-rule:evenodd;clip-rule:evenodd;fill:url(#SVGID_00000173873962273899572790000006318325006445226128_);}
	.st11{opacity:0.5;fill-rule:evenodd;clip-rule:evenodd;fill:url(#SVGID_00000160191970739193363240000014009978649679694484_);}
	.st12{opacity:0.5;fill-rule:evenodd;clip-rule:evenodd;fill:url(#SVGID_00000119797102841271912130000008403674540915986055_);}
	.st13{opacity:0.5;fill-rule:evenodd;clip-rule:evenodd;fill:url(#SVGID_00000150100383521849178520000008924744062842627760_);}
	.st14{opacity:0.91;fill-rule:evenodd;clip-rule:evenodd;fill:url(#SVGID_00000112634745836022549920000002553427421599134336_);}
	.st15{opacity:0.71;fill-rule:evenodd;clip-rule:evenodd;fill:url(#SVGID_00000173160364976713470490000007099937316089117330_);}
	.st16{fill-rule:evenodd;clip-rule:evenodd;fill:url(#SVGID_00000023979715042240272060000003668936642792413077_);}
	.st17{fill-rule:evenodd;clip-rule:evenodd;fill:url(#SVGID_00000152232830927899972140000000882001894964491180_);}
	.st18{fill-rule:evenodd;clip-rule:evenodd;fill:url(#SVGID_00000093172085602164067960000008258154171202010535_);}
	.st19{opacity:0.71;fill-rule:evenodd;clip-rule:evenodd;fill:url(#SVGID_00000065047370237738604040000007691259563262017419_);}
	.st20{fill-rule:evenodd;clip-rule:evenodd;fill:url(#SVGID_00000008109596027386111340000008165107540798305682_);}
	.st21{opacity:0.71;fill-rule:evenodd;clip-rule:evenodd;fill:url(#SVGID_00000029039694407180461630000004177483277723468975_);}
	.st22{fill-rule:evenodd;clip-rule:evenodd;fill:url(#SVGID_00000041284974743893579520000007917667244873011113_);}
	.st23{fill-rule:evenodd;clip-rule:evenodd;fill:url(#SVGID_00000069366317691102246690000009505494311830679992_);}
	.st24{opacity:0.71;fill-rule:evenodd;clip-rule:evenodd;fill:url(#SVGID_00000090264655824397168740000009948170318742704776_);}
	.st25{opacity:0.5;fill-rule:evenodd;clip-rule:evenodd;fill:url(#SVGID_00000137130662546430712260000014311743847000457650_);}
	.st26{fill-rule:evenodd;clip-rule:evenodd;fill:#2B1F54;}
	.st27{fill-rule:evenodd;clip-rule:evenodd;fill:url(#SVGID_00000096041946901400415450000016789458786978187691_);}
	.st28{fill-rule:evenodd;clip-rule:evenodd;fill:url(#SVGID_00000106836615244081554720000015513183638792512162_);}
	.st29{fill-rule:evenodd;clip-rule:evenodd;fill:url(#SVGID_00000052819063046345957130000008360330867796333185_);}
	.st30{fill-rule:evenodd;clip-rule:evenodd;fill:url(#SVGID_00000170998323301578115170000000097321727390709127_);}
	.st31{fill-rule:evenodd;clip-rule:evenodd;fill:url(#SVGID_00000127742222322597906490000016404948447984430750_);}
	.st32{fill-rule:evenodd;clip-rule:evenodd;fill:url(#SVGID_00000145045997036410145840000010047410659213020594_);}
	.st33{opacity:0.71;fill-rule:evenodd;clip-rule:evenodd;fill:url(#SVGID_00000034782977985566436100000002735479835784114854_);}
	.st34{opacity:0.71;fill-rule:evenodd;clip-rule:evenodd;fill:url(#SVGID_00000148663488890939742860000017862487702618507951_);}
	.st35{opacity:0.71;fill-rule:evenodd;clip-rule:evenodd;fill:url(#SVGID_00000088847273450760332070000011711408182903755667_);}
	.st36{opacity:0.71;fill-rule:evenodd;clip-rule:evenodd;fill:url(#SVGID_00000134956365611864850460000006817354867080220585_);}
	.st37{fill-rule:evenodd;clip-rule:evenodd;fill:url(#SVGID_00000122001517633458518060000001216010255028144796_);}
	.st38{fill-rule:evenodd;clip-rule:evenodd;fill:url(#SVGID_00000070821112319544970940000015471471792922006967_);}
	.st39{fill-rule:evenodd;clip-rule:evenodd;fill:url(#SVGID_00000088111688133587805140000005397813409634422926_);}
	.st40{fill-rule:evenodd;clip-rule:evenodd;fill:url(#SVGID_00000109013956704119725640000007125136949966237589_);}
	.st41{fill-rule:evenodd;clip-rule:evenodd;fill:#FFFFFF;}
	.st42{opacity:0.64;fill-rule:evenodd;clip-rule:evenodd;fill:url(#SVGID_00000129919180812588432540000018419588002266178956_);}
	.st43{fill-rule:evenodd;clip-rule:evenodd;fill:url(#SVGID_00000000192270558884838700000014018111854489070526_);}
	.st44{fill-rule:evenodd;clip-rule:evenodd;fill:url(#SVGID_00000031171966903625842290000014140304688231895425_);}
	.st45{fill-rule:evenodd;clip-rule:evenodd;fill:url(#SVGID_00000165225925807988433430000012150364377414674313_);}
	.st46{fill-rule:evenodd;clip-rule:evenodd;fill:url(#SVGID_00000140731962262157522700000003038741459841530038_);}
	.st47{fill-rule:evenodd;clip-rule:evenodd;fill:url(#SVGID_00000032607989001975553960000001526869641161164952_);}
	.st48{opacity:0.71;fill-rule:evenodd;clip-rule:evenodd;fill:url(#SVGID_00000105397866399265666200000013240812629322646165_);}
	.st49{fill-rule:evenodd;clip-rule:evenodd;fill:url(#SVGID_00000134219272178641938230000005187226565270248327_);}
	.st50{opacity:0.2;fill-rule:evenodd;clip-rule:evenodd;fill:url(#SVGID_00000021086464978811049380000013346099456361401999_);}
	.st51{opacity:0.71;fill-rule:evenodd;clip-rule:evenodd;fill:url(#SVGID_00000126323588928447181810000013905856064914855608_);}
	.st52{fill-rule:evenodd;clip-rule:evenodd;fill:#92D6E3;}
	.st53{fill-rule:evenodd;clip-rule:evenodd;fill:url(#SVGID_00000097478521650045971920000007262336980132294530_);}
</style>
<g>
	<g>
		
			<linearGradient id="SVGID_1_" gradientUnits="userSpaceOnUse" x1="-9684.5723" y1="38.8488" x2="-9670.1641" y2="38.8488" gradientTransform="matrix(-1 0 0 1 -9655.0527 0)">
			<stop  offset="0" style="stop-color:#5C59A3"/>
			<stop  offset="0.3972" style="stop-color:#5F5AA3"/>
			<stop  offset="0.7679" style="stop-color:#695CA3"/>
			<stop  offset="0.9944" style="stop-color:#725FA2"/>
		</linearGradient>
		<path class="st0" d="M16.45,36.27c0,0,7.16,4.16,12.55,4.27l0.52,1.06c0,0-8.91-0.72-14.41-5.52L16.45,36.27z"/>
		
			<linearGradient id="SVGID_00000003801440069515142230000015817724601880157570_" gradientUnits="userSpaceOnUse" x1="-9677.3682" y1="59.0114" x2="-9671.502" y2="59.0114" gradientTransform="matrix(-1 0 0 1 -9655.0527 0)">
			<stop  offset="0" style="stop-color:#5C59A3"/>
			<stop  offset="0.3972" style="stop-color:#5F5AA3"/>
			<stop  offset="0.7679" style="stop-color:#695CA3"/>
			<stop  offset="0.9944" style="stop-color:#725FA2"/>
		</linearGradient>
		<path style="fill-rule:evenodd;clip-rule:evenodd;fill:url(#SVGID_00000003801440069515142230000015817724601880157570_);" d="
			M16.77,75.21l1.04-1.78c0,0,0.28-17.43,4.51-29.54l-1.35-1.08C20.96,42.81,15.02,65.34,16.77,75.21z"/>
		
			<radialGradient id="SVGID_00000125564118201747078920000017695609497979859090_" cx="-9668.5508" cy="26.502" r="27.9217" gradientTransform="matrix(-1 0 0 1 -9655.0527 0)" gradientUnits="userSpaceOnUse">
			<stop  offset="0" style="stop-color:#FDD5BE"/>
			<stop  offset="0.0926" style="stop-color:#F4CEBE"/>
			<stop  offset="0.2265" style="stop-color:#E1C0BD"/>
			<stop  offset="0.3857" style="stop-color:#C4AABB"/>
			<stop  offset="0.5642" style="stop-color:#9E8EB8"/>
			<stop  offset="0.7542" style="stop-color:#7272B5"/>
			<stop  offset="0.9749" style="stop-color:#787FBD"/>
		</radialGradient>
		<path style="fill-rule:evenodd;clip-rule:evenodd;fill:url(#SVGID_00000125564118201747078920000017695609497979859090_);" d="
			M29.52,41.61c-8.56-2.2-14.41-5.52-14.41-5.52s-2.1,0.79-3.58,2.1c0,0-2.88,23.84,2.44,37.02h2.79c0,0,0.17-17.29,5-31.61
			c0,0,2.34,1.37,7.75,3.06V41.61z"/>
		
			<linearGradient id="SVGID_00000031208596840424102190000010388176459005695370_" gradientUnits="userSpaceOnUse" x1="-9670.6982" y1="58.1004" x2="-9666.2256" y2="58.1004" gradientTransform="matrix(-1 0 0 1 -9655.0527 0)">
			<stop  offset="0" style="stop-color:#B4A7D2"/>
			<stop  offset="0.2057" style="stop-color:#AC94C3"/>
			<stop  offset="0.5401" style="stop-color:#A37DB2"/>
			<stop  offset="0.817" style="stop-color:#9D6FA8"/>
			<stop  offset="1" style="stop-color:#9B6AA5"/>
		</linearGradient>
		
			<path style="opacity:0.5;fill-rule:evenodd;clip-rule:evenodd;fill:url(#SVGID_00000031208596840424102190000010388176459005695370_);" d="
			M13.59,54.96c3.24-0.47,2.07,6.39,0.4,6.31C12.32,61.18,8.8,55.65,13.59,54.96z"/>
		
			<linearGradient id="SVGID_00000168804693546797338220000006389186858391351487_" gradientUnits="userSpaceOnUse" x1="-9669.7285" y1="66.7526" x2="-9666.2939" y2="66.7526" gradientTransform="matrix(-1 0 0 1 -9655.0527 0)">
			<stop  offset="0" style="stop-color:#B4A7D2"/>
			<stop  offset="0.2057" style="stop-color:#AC94C3"/>
			<stop  offset="0.5401" style="stop-color:#A37DB2"/>
			<stop  offset="0.817" style="stop-color:#9D6FA8"/>
			<stop  offset="1" style="stop-color:#9B6AA5"/>
		</linearGradient>
		
			<path style="opacity:0.5;fill-rule:evenodd;clip-rule:evenodd;fill:url(#SVGID_00000168804693546797338220000006389186858391351487_);" d="
			M14.27,64.29c1.51,3.43-1.67,6.62-1.67,6.62s-1.04-3.94-1.36-8.01C11.24,62.9,13.09,61.63,14.27,64.29z"/>
		
			<linearGradient id="SVGID_00000155839201385308439450000009246236994985592979_" gradientUnits="userSpaceOnUse" x1="-9671.8359" y1="63.4269" x2="-9669.4902" y2="63.4269" gradientTransform="matrix(-1 0 0 1 -9655.0527 0)">
			<stop  offset="0" style="stop-color:#B4A7D2"/>
			<stop  offset="0.2057" style="stop-color:#AC94C3"/>
			<stop  offset="0.5401" style="stop-color:#A37DB2"/>
			<stop  offset="0.817" style="stop-color:#9D6FA8"/>
			<stop  offset="1" style="stop-color:#9B6AA5"/>
		</linearGradient>
		
			<path style="opacity:0.5;fill-rule:evenodd;clip-rule:evenodd;fill:url(#SVGID_00000155839201385308439450000009246236994985592979_);" d="
			M15.56,62.64c0.93,0.08,2.57,2.57-0.82,1.13C14,63.45,14.75,62.57,15.56,62.64z"/>
		
			<linearGradient id="SVGID_00000138546140516838579220000012916609579113731211_" gradientUnits="userSpaceOnUse" x1="-9669.2295" y1="45.2303" x2="-9665.8027" y2="45.2303" gradientTransform="matrix(-1 0 0 1 -9655.0527 0)">
			<stop  offset="0" style="stop-color:#FFFFFF"/>
			<stop  offset="1" style="stop-color:#633A64"/>
		</linearGradient>
		
			<path style="opacity:0.91;fill-rule:evenodd;clip-rule:evenodd;fill:url(#SVGID_00000138546140516838579220000012916609579113731211_);" d="
			M14.18,36.5L12,38.62c0,0-0.86,10.71-1.24,15.34c0,0-0.09-7.89,0.78-15.78C11.53,38.19,12.63,37.35,14.18,36.5z"/>
		
			<linearGradient id="SVGID_00000011004590429635931970000005455967165082651545_" gradientUnits="userSpaceOnUse" x1="23.8186" y1="43.5748" x2="31.183" y2="43.5748">
			<stop  offset="0" style="stop-color:#C489BC"/>
			<stop  offset="0.2555" style="stop-color:#B677B2"/>
			<stop  offset="0.7444" style="stop-color:#A059A3"/>
			<stop  offset="1" style="stop-color:#994D9E"/>
		</linearGradient>
		
			<path style="opacity:0.71;fill-rule:evenodd;clip-rule:evenodd;fill:url(#SVGID_00000011004590429635931970000005455967165082651545_);" d="
			M25.24,39.96h-1.42c0,0-0.1,2.36,2.28,5.53l5.09,1.7L29,40.54C29,40.54,26.96,40.47,25.24,39.96z"/>
	</g>
	<g>
		
			<linearGradient id="SVGID_00000016755390894081655310000008070262454046208906_" gradientUnits="userSpaceOnUse" x1="50.4807" y1="38.8488" x2="64.8886" y2="38.8488">
			<stop  offset="0" style="stop-color:#5C59A3"/>
			<stop  offset="0.3972" style="stop-color:#5F5AA3"/>
			<stop  offset="0.7679" style="stop-color:#695CA3"/>
			<stop  offset="0.9944" style="stop-color:#725FA2"/>
		</linearGradient>
		<path style="fill-rule:evenodd;clip-rule:evenodd;fill:url(#SVGID_00000016755390894081655310000008070262454046208906_);" d="
			M63.55,36.27c0,0-7.16,4.16-12.55,4.27l-0.52,1.06c0,0,8.91-0.72,14.41-5.52L63.55,36.27z"/>
		
			<linearGradient id="SVGID_00000181055924593246063290000004325709754968597639_" gradientUnits="userSpaceOnUse" x1="57.6847" y1="59.0114" x2="63.551" y2="59.0114">
			<stop  offset="0" style="stop-color:#5C59A3"/>
			<stop  offset="0.3972" style="stop-color:#5F5AA3"/>
			<stop  offset="0.7679" style="stop-color:#695CA3"/>
			<stop  offset="0.9944" style="stop-color:#725FA2"/>
		</linearGradient>
		<path style="fill-rule:evenodd;clip-rule:evenodd;fill:url(#SVGID_00000181055924593246063290000004325709754968597639_);" d="
			M63.23,75.21l-1.04-1.78c0,0-0.28-17.43-4.51-29.54l1.35-1.08C59.04,42.81,64.98,65.34,63.23,75.21z"/>
		
			<radialGradient id="SVGID_00000183965460036452751940000016420424948510053546_" cx="67.5496" cy="39.6001" r="27.9218" gradientUnits="userSpaceOnUse">
			<stop  offset="0" style="stop-color:#FDD5BE"/>
			<stop  offset="0.0926" style="stop-color:#F4CEBE"/>
			<stop  offset="0.2265" style="stop-color:#E1C0BD"/>
			<stop  offset="0.3857" style="stop-color:#C4AABB"/>
			<stop  offset="0.5642" style="stop-color:#9E8EB8"/>
			<stop  offset="0.7542" style="stop-color:#7272B5"/>
			<stop  offset="0.9749" style="stop-color:#787FBD"/>
		</radialGradient>
		<path style="fill-rule:evenodd;clip-rule:evenodd;fill:url(#SVGID_00000183965460036452751940000016420424948510053546_);" d="
			M50.48,41.61c8.56-2.2,14.41-5.52,14.41-5.52s2.1,0.79,3.58,2.1c0,0,2.88,23.84-2.44,37.02h-2.79c0,0-0.17-17.29-5-31.61
			c0,0-2.34,1.37-7.75,3.06V41.61z"/>
		
			<linearGradient id="SVGID_00000045590084319656045750000018436828063274591667_" gradientUnits="userSpaceOnUse" x1="64.8163" y1="54.956" x2="68.003" y2="54.956">
			<stop  offset="0" style="stop-color:#B4A7D2"/>
			<stop  offset="0.2057" style="stop-color:#AC94C3"/>
			<stop  offset="0.5401" style="stop-color:#A37DB2"/>
			<stop  offset="0.817" style="stop-color:#9D6FA8"/>
			<stop  offset="1" style="stop-color:#9B6AA5"/>
		</linearGradient>
		
			<path style="opacity:0.5;fill-rule:evenodd;clip-rule:evenodd;fill:url(#SVGID_00000045590084319656045750000018436828063274591667_);" d="
			M67.11,52.24c-3.26,0.33-2.56,5.51-0.89,5.43C67.89,57.59,68.78,52.08,67.11,52.24z"/>
		
			<linearGradient id="SVGID_00000034807313610571340790000007568473722134563762_" gradientUnits="userSpaceOnUse" x1="65.3244" y1="66.7526" x2="68.7592" y2="66.7526">
			<stop  offset="0" style="stop-color:#B4A7D2"/>
			<stop  offset="0.2057" style="stop-color:#AC94C3"/>
			<stop  offset="0.5401" style="stop-color:#A37DB2"/>
			<stop  offset="0.817" style="stop-color:#9D6FA8"/>
			<stop  offset="1" style="stop-color:#9B6AA5"/>
		</linearGradient>
		
			<path style="opacity:0.5;fill-rule:evenodd;clip-rule:evenodd;fill:url(#SVGID_00000034807313610571340790000007568473722134563762_);" d="
			M65.73,64.29c-1.51,3.43,1.67,6.62,1.67,6.62s1.04-3.94,1.36-8.01C68.76,62.9,66.91,61.63,65.73,64.29z"/>
		
			<linearGradient id="SVGID_00000017513775865813701350000018326232833275318412_" gradientUnits="userSpaceOnUse" x1="62.8713" y1="63.427" x2="64.1267" y2="63.427">
			<stop  offset="0" style="stop-color:#B4A7D2"/>
			<stop  offset="0.2057" style="stop-color:#AC94C3"/>
			<stop  offset="0.5401" style="stop-color:#A37DB2"/>
			<stop  offset="0.817" style="stop-color:#9D6FA8"/>
			<stop  offset="1" style="stop-color:#9B6AA5"/>
		</linearGradient>
		
			<path style="opacity:0.5;fill-rule:evenodd;clip-rule:evenodd;fill:url(#SVGID_00000017513775865813701350000018326232833275318412_);" d="
			M63.52,62.14c-0.93,0.08-0.81,2.57,0,2.57C64.33,64.71,64.33,62.07,63.52,62.14z"/>
		
			<linearGradient id="SVGID_00000063620808252696441810000006123488000700533430_" gradientUnits="userSpaceOnUse" x1="65.8235" y1="45.2303" x2="69.25" y2="45.2303">
			<stop  offset="0" style="stop-color:#FFFFFF"/>
			<stop  offset="1" style="stop-color:#633A64"/>
		</linearGradient>
		
			<path style="opacity:0.91;fill-rule:evenodd;clip-rule:evenodd;fill:url(#SVGID_00000063620808252696441810000006123488000700533430_);" d="
			M65.82,36.5L68,38.62c0,0,0.86,10.71,1.24,15.34c0,0,0.09-7.89-0.78-15.78C68.47,38.19,67.37,37.35,65.82,36.5z"/>
		
			<linearGradient id="SVGID_00000087407968482578381230000004380415815152004772_" gradientUnits="userSpaceOnUse" x1="48.9846" y1="43.718" x2="55.8946" y2="43.718">
			<stop  offset="0" style="stop-color:#C489BC"/>
			<stop  offset="0.2555" style="stop-color:#B677B2"/>
			<stop  offset="0.7444" style="stop-color:#A059A3"/>
			<stop  offset="1" style="stop-color:#994D9E"/>
		</linearGradient>
		
			<path style="opacity:0.71;fill-rule:evenodd;clip-rule:evenodd;fill:url(#SVGID_00000087407968482578381230000004380415815152004772_);" d="
			M54.76,39.96l1.13,0.01c0,0,0.02,2.61-1.3,5.26l-5.61,2.25l1.5-5.87L54.76,39.96z"/>
	</g>
	
		<radialGradient id="SVGID_00000166678166925685260940000000949146752814641810_" cx="41.1152" cy="54.6161" r="7.1951" gradientUnits="userSpaceOnUse">
		<stop  offset="5.586590e-03" style="stop-color:#FFCD05"/>
		<stop  offset="0.1956" style="stop-color:#FECA0B"/>
		<stop  offset="0.3576" style="stop-color:#FCC217"/>
		<stop  offset="0.5093" style="stop-color:#F8B524"/>
		<stop  offset="0.6548" style="stop-color:#F3A330"/>
		<stop  offset="0.7959" style="stop-color:#ED8C39"/>
		<stop  offset="0.9317" style="stop-color:#E8713F"/>
		<stop  offset="1" style="stop-color:#E45F42"/>
	</radialGradient>
	<path style="fill-rule:evenodd;clip-rule:evenodd;fill:url(#SVGID_00000166678166925685260940000000949146752814641810_);" d="
		M33.06,53.96c-0.22,4.48,2.58,7.7,6.19,8c5.22,0.44,8.15-5.47,7.54-8.12L33.06,53.96z"/>
	
		<radialGradient id="SVGID_00000074430794598838294360000006671032502656476817_" cx="931.054" cy="58.5102" r="9.7994" gradientTransform="matrix(0.851 0 0 1 -752.6948 0)" gradientUnits="userSpaceOnUse">
		<stop  offset="5.586590e-03" style="stop-color:#662F89"/>
		<stop  offset="0.2093" style="stop-color:#502F65"/>
		<stop  offset="0.413" style="stop-color:#392846"/>
		<stop  offset="0.6006" style="stop-color:#271F2E"/>
		<stop  offset="0.767" style="stop-color:#16131A"/>
		<stop  offset="0.9058" style="stop-color:#080709"/>
		<stop  offset="1" style="stop-color:#010101"/>
	</radialGradient>
	
		<ellipse style="fill-rule:evenodd;clip-rule:evenodd;fill:url(#SVGID_00000074430794598838294360000006671032502656476817_);" cx="39.63" cy="58.51" rx="8.34" ry="9.8"/>
	
		<radialGradient id="SVGID_00000155147760327726662340000011819967262350825088_" cx="42.4769" cy="54.6094" r="6.2266" gradientUnits="userSpaceOnUse">
		<stop  offset="0" style="stop-color:#B2B6BE"/>
		<stop  offset="0.1115" style="stop-color:#ADB0BD"/>
		<stop  offset="0.2728" style="stop-color:#9FA0B9"/>
		<stop  offset="0.4644" style="stop-color:#8B88B3"/>
		<stop  offset="0.6776" style="stop-color:#716BAC"/>
		<stop  offset="0.7542" style="stop-color:#6760AB"/>
		<stop  offset="0.9749" style="stop-color:#7774B6"/>
	</radialGradient>
	<path style="fill-rule:evenodd;clip-rule:evenodd;fill:url(#SVGID_00000155147760327726662340000011819967262350825088_);" d="
		M31.56,51.66l0.7,3.09c0,0,2.88,1.51,7.7,1.51s7.44-0.87,7.44-0.87l1.16-3.73H31.56z"/>
	
		<linearGradient id="SVGID_00000035532131608993024230000017074360161843433122_" gradientUnits="userSpaceOnUse" x1="31.5613" y1="53.2046" x2="48.5597" y2="53.2046">
		<stop  offset="0" style="stop-color:#9B6AA5"/>
		<stop  offset="0.1202" style="stop-color:#A072AA"/>
		<stop  offset="0.3375" style="stop-color:#AF89B7"/>
		<stop  offset="0.6271" style="stop-color:#CAB3D1"/>
		<stop  offset="0.9745" style="stop-color:#F9F6FA"/>
		<stop  offset="1" style="stop-color:#FFFFFF"/>
	</linearGradient>
	
		<path style="opacity:0.71;fill-rule:evenodd;clip-rule:evenodd;fill:url(#SVGID_00000035532131608993024230000017074360161843433122_);" d="
		M32.26,54.75c5.27-0.9,14.15-1.3,15.34,0l0.96-3.09h-17L32.26,54.75z"/>
	
		<linearGradient id="SVGID_00000000199035743429527700000008688573962320391810_" gradientUnits="userSpaceOnUse" x1="22.9748" y1="41.6073" x2="56.8551" y2="41.6073">
		<stop  offset="0" style="stop-color:#851C5A"/>
		<stop  offset="0.0236" style="stop-color:#8A2059"/>
		<stop  offset="0.1562" style="stop-color:#A13053"/>
		<stop  offset="0.2957" style="stop-color:#B53D4C"/>
		<stop  offset="0.4422" style="stop-color:#C64845"/>
		<stop  offset="0.5985" style="stop-color:#D34F3E"/>
		<stop  offset="0.7716" style="stop-color:#DB5439"/>
		<stop  offset="0.9944" style="stop-color:#DE5538"/>
	</linearGradient>
	<path style="fill-rule:evenodd;clip-rule:evenodd;fill:url(#SVGID_00000000199035743429527700000008688573962320391810_);" d="
		M56.86,29.37c0,0-0.38,2.03-1.11,4.98c-1.3,5.31-3.72,13.63-7.04,18.57c0,0-5.11,1.01-10.29,0.93c-2.8-0.04-5.62-0.4-7.67-1.41
		c0,0-5.5-11.45-7.77-23.06H56.86z"/>
	
		<linearGradient id="SVGID_00000168112833116485781920000003343343836234703778_" gradientUnits="userSpaceOnUse" x1="22.9748" y1="41.605" x2="56.8551" y2="41.605">
		<stop  offset="0" style="stop-color:#9B6AA5"/>
		<stop  offset="0.1202" style="stop-color:#A072AA"/>
		<stop  offset="0.3375" style="stop-color:#AF89B7"/>
		<stop  offset="0.6271" style="stop-color:#CAB3D1"/>
		<stop  offset="0.9745" style="stop-color:#F9F6FA"/>
		<stop  offset="1" style="stop-color:#FFFFFF"/>
	</linearGradient>
	
		<path style="opacity:0.71;fill-rule:evenodd;clip-rule:evenodd;fill:url(#SVGID_00000168112833116485781920000003343343836234703778_);" d="
		M56.86,29.37c0,0-0.38,2.03-1.11,4.98c-11.99-0.44-24.49,1.22-26.23,4.23c-1.74,3.01,1.81,12.11,4.63,13.66
		c1.97,1.08,3.51,1.47,4.27,1.6c-2.8-0.04-5.62-0.4-7.67-1.41c0,0-5.5-11.45-7.77-23.06H56.86z"/>
	
		<linearGradient id="SVGID_00000121968440165334206690000016515981212585721482_" gradientUnits="userSpaceOnUse" x1="14.8832" y1="26.3779" x2="53.0421" y2="26.3779">
		<stop  offset="0.0251" style="stop-color:#787FBD"/>
		<stop  offset="0.2061" style="stop-color:#7272B5"/>
		<stop  offset="0.8711" style="stop-color:#E1C0BD"/>
		<stop  offset="1" style="stop-color:#FDD5BE"/>
	</linearGradient>
	<path style="fill-rule:evenodd;clip-rule:evenodd;fill:url(#SVGID_00000121968440165334206690000016515981212585721482_);" d="
		M42.8,23.47c-16.93-0.63-21.92,2.36-21.92,2.36s3.49,3.71,19.47,3.53s18.69-3.53,18.69-3.53S53.27,23.86,42.8,23.47z"/>
	
		<radialGradient id="SVGID_00000088834936806078453700000004502585608600926608_" cx="44.3976" cy="9.3966" r="22.8499" gradientUnits="userSpaceOnUse">
		<stop  offset="0" style="stop-color:#FDD5BE"/>
		<stop  offset="0.0926" style="stop-color:#F4CEBE"/>
		<stop  offset="0.2265" style="stop-color:#E1C0BD"/>
		<stop  offset="0.3857" style="stop-color:#C4AABB"/>
		<stop  offset="0.5642" style="stop-color:#9E8EB8"/>
		<stop  offset="0.7542" style="stop-color:#7272B5"/>
		<stop  offset="0.9749" style="stop-color:#787FBD"/>
	</radialGradient>
	<path style="fill-rule:evenodd;clip-rule:evenodd;fill:url(#SVGID_00000088834936806078453700000004502585608600926608_);" d="
		M55.89,25.44c0,0-9.23,3.27-20.7,2.54c-3.64-0.23-7.51-0.87-11.38-2.14c0,0-0.06-15.18,15.4-15.56c1.72-0.04,3.27,0.11,4.66,0.42
		C54.93,13.17,55.89,25.44,55.89,25.44z"/>
	
		<linearGradient id="SVGID_00000110448661107154991280000004829098138991026866_" gradientUnits="userSpaceOnUse" x1="36.3028" y1="20.2787" x2="28.0947" y2="13.555">
		<stop  offset="0" style="stop-color:#9B6AA5"/>
		<stop  offset="0.1202" style="stop-color:#A072AA"/>
		<stop  offset="0.3375" style="stop-color:#AF89B7"/>
		<stop  offset="0.6271" style="stop-color:#CAB3D1"/>
		<stop  offset="0.9745" style="stop-color:#F9F6FA"/>
		<stop  offset="1" style="stop-color:#FFFFFF"/>
	</linearGradient>
	
		<path style="opacity:0.71;fill-rule:evenodd;clip-rule:evenodd;fill:url(#SVGID_00000110448661107154991280000004829098138991026866_);" d="
		M43.87,10.7l-0.38,0.42c-1.22,1.44-10.7,1.83-10.7,1.83s-2.71,0.65-4.02,5.02c-1.31,4.37,1.09,8.27,6.42,10.01
		c-3.64-0.23-7.51-0.87-11.38-2.14c0,0-0.06-15.18,15.4-15.56C40.94,10.23,42.48,10.39,43.87,10.7z"/>
	<g>
		
			<linearGradient id="SVGID_00000024689656783001672740000013387783503129432726_" gradientUnits="userSpaceOnUse" x1="39.3702" y1="26.0664" x2="39.3702" y2="9.3709">
			<stop  offset="0" style="stop-color:#FFFFFF"/>
			<stop  offset="1" style="stop-color:#010101"/>
		</linearGradient>
		
			<path style="opacity:0.5;fill-rule:evenodd;clip-rule:evenodd;fill:url(#SVGID_00000024689656783001672740000013387783503129432726_);" d="
			M47.04,20.29c0,3.77-3.43,6.82-7.67,6.82c-4.24,0-7.67-3.05-7.67-6.82c0-3.77,3.23-8,7.47-8C43.41,12.29,47.04,16.53,47.04,20.29z
			"/>
		<path class="st26" d="M45.65,20.64c0,3.08-2.7,5.19-6.17,5.19c-3.47,0-6.38-2.11-6.38-5.19s2.81-5.58,6.28-5.58
			C42.84,15.06,45.65,17.56,45.65,20.64z"/>
		
			<radialGradient id="SVGID_00000026872389006819270200000016855955009246748596_" cx="39.3702" cy="143.3113" r="4.6379" gradientTransform="matrix(1 0 0 0.8891 0 -106.4833)" gradientUnits="userSpaceOnUse">
			<stop  offset="5.586590e-03" style="stop-color:#70CFF2"/>
			<stop  offset="0.2104" style="stop-color:#6CC6ED"/>
			<stop  offset="0.5549" style="stop-color:#5EB2E2"/>
			<stop  offset="0.9945" style="stop-color:#4A95D1"/>
			<stop  offset="1" style="stop-color:#4A95D0"/>
		</radialGradient>
		<path style="fill-rule:evenodd;clip-rule:evenodd;fill:url(#SVGID_00000026872389006819270200000016855955009246748596_);" d="
			M43.84,20.64c0,2.2-2,4.56-4.47,4.56c-2.47,0-4.47-2.36-4.47-4.56c0-2.2,2-3.98,4.47-3.98C41.84,16.67,43.84,18.45,43.84,20.64z"
			/>
		
			<linearGradient id="SVGID_00000060027247909024434810000011356046533654545798_" gradientUnits="userSpaceOnUse" x1="39.1691" y1="21.8566" x2="39.1691" y2="19.0624">
			<stop  offset="0" style="stop-color:#E8E3F1"/>
			<stop  offset="0.191" style="stop-color:#D0BFDA"/>
			<stop  offset="0.4521" style="stop-color:#B797C0"/>
			<stop  offset="0.6836" style="stop-color:#A77EB1"/>
			<stop  offset="0.8741" style="stop-color:#9E6FA8"/>
			<stop  offset="1" style="stop-color:#9B6AA5"/>
		</linearGradient>
		<path style="fill-rule:evenodd;clip-rule:evenodd;fill:url(#SVGID_00000060027247909024434810000011356046533654545798_);" d="
			M33.09,20.29l1.94,1.32c0,0,1.16-1.86,4.71-1.86c3.61,0,4.08,1.25,4.08,1.25l1.46-2.25c0,0-1.26-3.5-5.91-3.69
			C34.72,14.87,32.77,19.01,33.09,20.29z"/>
	</g>
	<g>
		
			<linearGradient id="SVGID_00000098919039017058459990000018124559872838695861_" gradientUnits="userSpaceOnUse" x1="24.464" y1="30.8637" x2="24.464" y2="33.4655">
			<stop  offset="0.0251" style="stop-color:#787FBD"/>
			<stop  offset="0.2061" style="stop-color:#7272B5"/>
			<stop  offset="0.8711" style="stop-color:#E1C0BD"/>
			<stop  offset="1" style="stop-color:#FDD5BE"/>
		</linearGradient>
		<path style="fill-rule:evenodd;clip-rule:evenodd;fill:url(#SVGID_00000098919039017058459990000018124559872838695861_);" d="
			M26.79,31.87c-0.14,0.41-0.35,0.74-0.6,0.99c-0.03,0.03-0.04,0.04-0.04,0.04c-0.89,0.81-2.28,0.7-3.17,0c0,0,0,0,0,0
			c-0.59-0.46-0.95-1.17-0.8-2.04L26.79,31.87z"/>
		
			<linearGradient id="SVGID_00000077291629272957147540000007290487465183873938_" gradientUnits="userSpaceOnUse" x1="34.1518" y1="31.8697" x2="34.1518" y2="34.7857">
			<stop  offset="0.0251" style="stop-color:#787FBD"/>
			<stop  offset="0.2061" style="stop-color:#7272B5"/>
			<stop  offset="0.8711" style="stop-color:#E1C0BD"/>
			<stop  offset="1" style="stop-color:#FDD5BE"/>
		</linearGradient>
		<path style="fill-rule:evenodd;clip-rule:evenodd;fill:url(#SVGID_00000077291629272957147540000007290487465183873938_);" d="
			M37.56,32.39c-0.21,0.63-0.51,1.12-0.87,1.49c-1.25,1.26-3.23,1.07-4.55,0.2v0c-0.82-0.54-1.39-1.33-1.39-2.22L37.56,32.39z"/>
		
			<linearGradient id="SVGID_00000054251453225208104670000013588957438953784510_" gradientUnits="userSpaceOnUse" x1="46.5806" y1="31.8697" x2="46.5806" y2="34.3458">
			<stop  offset="0.0251" style="stop-color:#787FBD"/>
			<stop  offset="0.2061" style="stop-color:#7272B5"/>
			<stop  offset="0.8711" style="stop-color:#E1C0BD"/>
			<stop  offset="1" style="stop-color:#FDD5BE"/>
		</linearGradient>
		<path style="fill-rule:evenodd;clip-rule:evenodd;fill:url(#SVGID_00000054251453225208104670000013588957438953784510_);" d="
			M49.67,31.87c0,0.37-0.1,0.71-0.28,1.02c-0.71,1.19-2.6,1.78-4.08,1.29c-0.8-0.27-1.49-0.85-1.8-1.84L49.67,31.87z"/>
		
			<linearGradient id="SVGID_00000176044474312795495450000002878894625021697705_" gradientUnits="userSpaceOnUse" x1="55.3462" y1="30.1809" x2="55.3462" y2="33.0728">
			<stop  offset="0.0251" style="stop-color:#787FBD"/>
			<stop  offset="0.2061" style="stop-color:#7272B5"/>
			<stop  offset="0.8711" style="stop-color:#E1C0BD"/>
			<stop  offset="1" style="stop-color:#FDD5BE"/>
		</linearGradient>
		<path style="fill-rule:evenodd;clip-rule:evenodd;fill:url(#SVGID_00000176044474312795495450000002878894625021697705_);" d="
			M57.87,31.44c-0.71,1.12-2.37,2.04-3.85,1.46c0,0,0,0,0,0c0,0-0.01,0-0.02-0.01c-0.07-0.03-0.15-0.06-0.22-0.1
			c-0.48-0.25-0.94-0.66-1.33-1.3l5.76-1.31C58.27,30.59,58.13,31.03,57.87,31.44z"/>
		
			<linearGradient id="SVGID_00000160183072375606466830000009654954950556716674_" gradientUnits="userSpaceOnUse" x1="22.1399" y1="31.8814" x2="26.7881" y2="31.8814">
			<stop  offset="0" style="stop-color:#9B6AA5"/>
			<stop  offset="0.1202" style="stop-color:#A072AA"/>
			<stop  offset="0.3375" style="stop-color:#AF89B7"/>
			<stop  offset="0.6271" style="stop-color:#CAB3D1"/>
			<stop  offset="0.9745" style="stop-color:#F9F6FA"/>
			<stop  offset="1" style="stop-color:#FFFFFF"/>
		</linearGradient>
		
			<path style="opacity:0.71;fill-rule:evenodd;clip-rule:evenodd;fill:url(#SVGID_00000160183072375606466830000009654954950556716674_);" d="
			M26.79,31.87c-0.14,0.41-0.35,0.74-0.6,0.99c-0.03,0.03-0.04,0.04-0.04,0.04c-0.1-0.57-2.51-0.78-3.17,0c0,0,0,0,0,0
			c-0.59-0.46-0.95-1.17-0.8-2.04L26.79,31.87z"/>
		
			<linearGradient id="SVGID_00000002359559173901742440000002465827111641564091_" gradientUnits="userSpaceOnUse" x1="30.7464" y1="32.9782" x2="37.5573" y2="32.9782">
			<stop  offset="0" style="stop-color:#9B6AA5"/>
			<stop  offset="0.1202" style="stop-color:#A072AA"/>
			<stop  offset="0.3375" style="stop-color:#AF89B7"/>
			<stop  offset="0.6271" style="stop-color:#CAB3D1"/>
			<stop  offset="0.9745" style="stop-color:#F9F6FA"/>
			<stop  offset="1" style="stop-color:#FFFFFF"/>
		</linearGradient>
		
			<path style="opacity:0.71;fill-rule:evenodd;clip-rule:evenodd;fill:url(#SVGID_00000002359559173901742440000002465827111641564091_);" d="
			M37.56,32.39c-0.21,0.63-0.51,1.12-0.87,1.49c-0.13-0.94-4.5-0.55-4.55,0.2c-0.82-0.54-1.39-1.33-1.39-2.22L37.56,32.39z"/>
		
			<linearGradient id="SVGID_00000056425180644245942320000012666786053059120060_" gradientUnits="userSpaceOnUse" x1="43.4951" y1="33.0201" x2="49.666" y2="33.0201">
			<stop  offset="0" style="stop-color:#9B6AA5"/>
			<stop  offset="0.1202" style="stop-color:#A072AA"/>
			<stop  offset="0.3375" style="stop-color:#AF89B7"/>
			<stop  offset="0.6271" style="stop-color:#CAB3D1"/>
			<stop  offset="0.9745" style="stop-color:#F9F6FA"/>
			<stop  offset="1" style="stop-color:#FFFFFF"/>
		</linearGradient>
		
			<path style="opacity:0.71;fill-rule:evenodd;clip-rule:evenodd;fill:url(#SVGID_00000056425180644245942320000012666786053059120060_);" d="
			M49.67,31.87c0,0.37-0.1,0.71-0.28,1.02l0,0c-0.49-0.41-3.84,0.32-4.08,1.29c0,0,0,0,0,0c-0.8-0.27-1.49-0.85-1.8-1.84
			L49.67,31.87z"/>
		
			<linearGradient id="SVGID_00000026156219363365289930000002525197168198356627_" gradientUnits="userSpaceOnUse" x1="52.4603" y1="31.5378" x2="58.2321" y2="31.5378">
			<stop  offset="0" style="stop-color:#9B6AA5"/>
			<stop  offset="0.1202" style="stop-color:#A072AA"/>
			<stop  offset="0.3375" style="stop-color:#AF89B7"/>
			<stop  offset="0.6271" style="stop-color:#CAB3D1"/>
			<stop  offset="0.9745" style="stop-color:#F9F6FA"/>
			<stop  offset="1" style="stop-color:#FFFFFF"/>
		</linearGradient>
		
			<path style="opacity:0.71;fill-rule:evenodd;clip-rule:evenodd;fill:url(#SVGID_00000026156219363365289930000002525197168198356627_);" d="
			M57.87,31.44c-0.53-0.94-3.2,0.4-3.85,1.46v0c0,0,0,0,0,0c0,0-0.01,0-0.02-0.01c-0.03-0.01-0.11-0.05-0.22-0.1
			c-0.48-0.25-0.94-0.66-1.33-1.3l5.76-1.31C58.27,30.59,58.13,31.03,57.87,31.44z"/>
	</g>
	
		<radialGradient id="SVGID_00000078745171012261992010000004844083099618921092_" cx="45.4604" cy="30.8332" r="17.1892" gradientUnits="userSpaceOnUse">
		<stop  offset="0" style="stop-color:#B2B6BE"/>
		<stop  offset="0.1115" style="stop-color:#ADB0BD"/>
		<stop  offset="0.2728" style="stop-color:#9FA0B9"/>
		<stop  offset="0.4644" style="stop-color:#8B88B3"/>
		<stop  offset="0.6776" style="stop-color:#716BAC"/>
		<stop  offset="0.7542" style="stop-color:#6760AB"/>
		<stop  offset="0.9749" style="stop-color:#7774B6"/>
	</radialGradient>
	<path style="fill-rule:evenodd;clip-rule:evenodd;fill:url(#SVGID_00000078745171012261992010000004844083099618921092_);" d="
		M20.88,25.83c0,0-0.61,2.4,0,4.93c0,0,14.5,5.91,38.16-0.41c0,0,0.61-1.24,0-4.52c0,0-8.82,3.71-21.83,2.83
		S20.88,25.83,20.88,25.83z"/>
	
		<radialGradient id="SVGID_00000144321383765285936240000010905657241891754113_" cx="41.5741" cy="10.2994" r="4.8854" gradientUnits="userSpaceOnUse">
		<stop  offset="0" style="stop-color:#B2B6BE"/>
		<stop  offset="0.1115" style="stop-color:#ADB0BD"/>
		<stop  offset="0.2728" style="stop-color:#9FA0B9"/>
		<stop  offset="0.4644" style="stop-color:#8B88B3"/>
		<stop  offset="0.6776" style="stop-color:#716BAC"/>
		<stop  offset="0.7542" style="stop-color:#6760AB"/>
		<stop  offset="0.9749" style="stop-color:#7774B6"/>
	</radialGradient>
	<path style="fill-rule:evenodd;clip-rule:evenodd;fill:url(#SVGID_00000144321383765285936240000010905657241891754113_);" d="
		M35.2,11.12l0.17-2.5l7.73,0.06l0.39,2.44C43.5,11.12,39.61,12.56,35.2,11.12z"/>
	
		<linearGradient id="SVGID_00000010290032366491524080000016569530598472569008_" gradientUnits="userSpaceOnUse" x1="35.3743" y1="8.6703" x2="43.1022" y2="8.6703">
		<stop  offset="0.0251" style="stop-color:#787FBD"/>
		<stop  offset="0.2061" style="stop-color:#7272B5"/>
		<stop  offset="0.8711" style="stop-color:#E1C0BD"/>
		<stop  offset="1" style="stop-color:#FDD5BE"/>
	</linearGradient>
	<path style="fill-rule:evenodd;clip-rule:evenodd;fill:url(#SVGID_00000010290032366491524080000016569530598472569008_);" d="
		M43.1,8.68c0,0.42-1.8,0.75-3.93,0.75s-3.79-0.4-3.79-0.81c0-0.42,1.66-0.7,3.79-0.7S43.1,8.26,43.1,8.68z"/>
	<g>
		
			<radialGradient id="SVGID_00000054945644048121056630000010147536369713712780_" cx="-1715.1185" cy="-229.7936" r="4.4716" gradientTransform="matrix(1.7744 0.1013 -0.057 0.9984 3071.8298 408.9887)" gradientUnits="userSpaceOnUse">
			<stop  offset="0" style="stop-color:#FDD5BE"/>
			<stop  offset="0.0926" style="stop-color:#F4CEBE"/>
			<stop  offset="0.2265" style="stop-color:#E1C0BD"/>
			<stop  offset="0.3857" style="stop-color:#C4AABB"/>
			<stop  offset="0.5642" style="stop-color:#9E8EB8"/>
			<stop  offset="0.7542" style="stop-color:#7272B5"/>
			<stop  offset="0.9749" style="stop-color:#787FBD"/>
		</radialGradient>
		<path style="fill-rule:evenodd;clip-rule:evenodd;fill:url(#SVGID_00000054945644048121056630000010147536369713712780_);" d="
			M37.47,8.67c0,0,1.69,0.94,3.39,0.09c0,0-0.33-4.85-1.56-4.85S37.47,8.67,37.47,8.67z"/>
		<path class="st41" d="M39.42,4.45c-0.41,1.21,0.49,1.8,0.52,1.22C39.97,5.1,39.53,4.14,39.42,4.45z"/>
		
			<linearGradient id="SVGID_00000030467230984285748430000010565701069578618517_" gradientUnits="userSpaceOnUse" x1="37.4851" y1="6.4867" x2="38.9218" y2="6.4867">
			<stop  offset="0" style="stop-color:#633A64"/>
			<stop  offset="1" style="stop-color:#FFC314"/>
		</linearGradient>
		
			<path style="opacity:0.64;fill-rule:evenodd;clip-rule:evenodd;fill:url(#SVGID_00000030467230984285748430000010565701069578618517_);" d="
			M38.65,4.39c1.01,2.11-1.17,4.19-1.17,4.19s0.37-2.4,0.72-3.21C38.56,4.55,38.65,4.39,38.65,4.39z"/>
		
			<radialGradient id="SVGID_00000103237493031624108900000013108437220463824286_" cx="1412.2607" cy="342.3321" r="1.5336" gradientTransform="matrix(0.7826 0 0 1.4799 -1065.6031 -501.0406)" gradientUnits="userSpaceOnUse">
			<stop  offset="5.586590e-03" style="stop-color:#EDE813"/>
			<stop  offset="0.2121" style="stop-color:#949034"/>
			<stop  offset="0.4164" style="stop-color:#5A592E"/>
			<stop  offset="0.603" style="stop-color:#363623"/>
			<stop  offset="0.7684" style="stop-color:#1D1E15"/>
			<stop  offset="0.9063" style="stop-color:#0A0B08"/>
			<stop  offset="1" style="stop-color:#010101"/>
		</radialGradient>
		
			<ellipse style="fill-rule:evenodd;clip-rule:evenodd;fill:url(#SVGID_00000103237493031624108900000013108437220463824286_);" cx="39.63" cy="5.58" rx="1.2" ry="2.27"/>
	</g>
	
		<radialGradient id="SVGID_00000090256849474382792580000014050380539562850721_" cx="41.3922" cy="9.4251" r="1.8847" gradientUnits="userSpaceOnUse">
		<stop  offset="0" style="stop-color:#FFFFFF"/>
		<stop  offset="1" style="stop-color:#633A64"/>
	</radialGradient>
	
		<polygon style="fill-rule:evenodd;clip-rule:evenodd;fill:url(#SVGID_00000090256849474382792580000014050380539562850721_);" points="
		40.44,9.43 42.05,9.19 42.23,11.46 40.22,11.73 	"/>
	
		<radialGradient id="SVGID_00000165215968881761537860000012429404674565355138_" cx="51.9275" cy="27.8998" r="3.8473" gradientUnits="userSpaceOnUse">
		<stop  offset="0" style="stop-color:#FFFFFF"/>
		<stop  offset="1" style="stop-color:#633A64"/>
	</radialGradient>
	<path style="fill-rule:evenodd;clip-rule:evenodd;fill:url(#SVGID_00000165215968881761537860000012429404674565355138_);" d="
		M53.68,27.43c0,0-2.18,0.49-4.7,0.85v4.16c0,0,3.4-0.54,5.04-0.89L53.68,27.43z"/>
	
		<linearGradient id="SVGID_00000099663556022306889930000007123273350845504951_" gradientUnits="userSpaceOnUse" x1="39.3702" y1="40.1228" x2="42.1853" y2="40.1228" gradientTransform="matrix(1 0 0 1.0325 0 16.2089)">
		<stop  offset="0" style="stop-color:#5C59A3"/>
		<stop  offset="0.3972" style="stop-color:#5F5AA3"/>
		<stop  offset="0.7679" style="stop-color:#695CA3"/>
		<stop  offset="0.9944" style="stop-color:#725FA2"/>
	</linearGradient>
	
		<polygon style="fill-rule:evenodd;clip-rule:evenodd;fill:url(#SVGID_00000099663556022306889930000007123273350845504951_);" points="
		42.19,38.85 39.37,38.58 40.52,76.69 41.52,76.69 	"/>
	
		<radialGradient id="SVGID_00000060009420782477002490000017953929594626718902_" cx="41.1443" cy="35.2359" r="5.6348" gradientUnits="userSpaceOnUse">
		<stop  offset="0" style="stop-color:#FDD5BE"/>
		<stop  offset="0.0926" style="stop-color:#F4CEBE"/>
		<stop  offset="0.2265" style="stop-color:#E1C0BD"/>
		<stop  offset="0.3857" style="stop-color:#C4AABB"/>
		<stop  offset="0.5642" style="stop-color:#9E8EB8"/>
		<stop  offset="0.7542" style="stop-color:#7272B5"/>
		<stop  offset="0.9749" style="stop-color:#787FBD"/>
	</radialGradient>
	
		<polygon style="fill-rule:evenodd;clip-rule:evenodd;fill:url(#SVGID_00000060009420782477002490000017953929594626718902_);" points="
		39.37,38.58 42.19,38.85 41.87,36.09 39.86,36.09 	"/>
	
		<linearGradient id="SVGID_00000055697791018588123300000007949859667218924688_" gradientUnits="userSpaceOnUse" x1="34.6022" y1="46.1753" x2="39.9586" y2="46.1753">
		<stop  offset="0" style="stop-color:#C489BC"/>
		<stop  offset="0.2555" style="stop-color:#B677B2"/>
		<stop  offset="0.7444" style="stop-color:#A059A3"/>
		<stop  offset="1" style="stop-color:#994D9E"/>
	</linearGradient>
	
		<path style="opacity:0.71;fill-rule:evenodd;clip-rule:evenodd;fill:url(#SVGID_00000055697791018588123300000007949859667218924688_);" d="
		M39.86,36.09c0,0-2.5,4.39-5.25,17.46l2.93,0.3l-0.9,2.16l3.33,0.25l-0.59-17.68L39.86,36.09z"/>
	
		<linearGradient id="SVGID_00000088836431384868425620000001028045952730052268_" gradientUnits="userSpaceOnUse" x1="34.6022" y1="27.6367" x2="57.3352" y2="27.6367">
		<stop  offset="0" style="stop-color:#FFFFFF"/>
		<stop  offset="1" style="stop-color:#633A64"/>
	</linearGradient>
	<path style="fill-rule:evenodd;clip-rule:evenodd;fill:url(#SVGID_00000088836431384868425620000001028045952730052268_);" d="
		M34.6,28.47c0,0,12.25,1.64,22.73-2.03C57.34,26.44,48.57,29.33,34.6,28.47z"/>
	
		<linearGradient id="SVGID_00000028287207760028023190000015317689442040803714_" gradientUnits="userSpaceOnUse" x1="46.8118" y1="53.094" x2="48.4469" y2="41.1031">
		<stop  offset="0" style="stop-color:#633A64"/>
		<stop  offset="1" style="stop-color:#FFC314"/>
	</linearGradient>
	
		<path style="opacity:0.2;fill-rule:evenodd;clip-rule:evenodd;fill:url(#SVGID_00000028287207760028023190000015317689442040803714_);" d="
		M48.71,52.91c5.83-11.31,4.52-24.08-1.3-13.33c-2.66,4.92-4.62,14.11-4.62,14.11L48.71,52.91z"/>
	
		<linearGradient id="SVGID_00000142857377292902456060000006376965970852404131_" gradientUnits="userSpaceOnUse" x1="33.5099" y1="27.8575" x2="22.727" y2="28.5764">
		<stop  offset="0" style="stop-color:#9B6AA5"/>
		<stop  offset="0.1202" style="stop-color:#A072AA"/>
		<stop  offset="0.3375" style="stop-color:#AF89B7"/>
		<stop  offset="0.6271" style="stop-color:#CAB3D1"/>
		<stop  offset="0.9745" style="stop-color:#F9F6FA"/>
		<stop  offset="1" style="stop-color:#FFFFFF"/>
	</linearGradient>
	
		<path style="opacity:0.71;fill-rule:evenodd;clip-rule:evenodd;fill:url(#SVGID_00000142857377292902456060000006376965970852404131_);" d="
		M25.5,32.06c0,0,2.39-2.51,4.55-4.08h5.15c0,0-5.93-0.32-11.38-2.14l0.06-1c0,0-2.56,0.5-3,1c0,0-0.67,3.18,0,4.93L25.5,32.06z"/>
	<path class="st41" d="M48.98,37.47c-1.27,0.97-2.36,3.04-2.56,4.19C46.34,42.13,49.66,36.95,48.98,37.47z"/>
	<path class="st41" d="M45.65,12.41c-1.3-0.07,0.46,2.05,1.22,1.76S46.4,12.45,45.65,12.41z"/>
	<path class="st52" d="M38.2,23.86c-0.41,0.34,1.54,0.59,1.76,0.17C40.18,23.6,39.11,23.11,38.2,23.86z"/>
	
		<radialGradient id="SVGID_00000009585274957959788770000014668864010297292713_" cx="45.9687" cy="14.1694" r="3.2531" gradientUnits="userSpaceOnUse">
		<stop  offset="5.586590e-03" style="stop-color:#EDE813"/>
		<stop  offset="0.2121" style="stop-color:#949034"/>
		<stop  offset="0.4164" style="stop-color:#5A592E"/>
		<stop  offset="0.603" style="stop-color:#363623"/>
		<stop  offset="0.7684" style="stop-color:#1D1E15"/>
		<stop  offset="0.9063" style="stop-color:#0A0B08"/>
		<stop  offset="1" style="stop-color:#010101"/>
	</radialGradient>
	
		<circle style="fill-rule:evenodd;clip-rule:evenodd;fill:url(#SVGID_00000009585274957959788770000014668864010297292713_);" cx="45.97" cy="14.17" r="3.25"/>
</g>
</svg>
