<?xml version="1.0" encoding="utf-8"?>
<!-- Generator: Adobe Illustrator 27.6.1, SVG Export Plug-In . SVG Version: 6.00 Build 0)  -->
<svg version="1.1" id="Layer_1" xmlns="http://www.w3.org/2000/svg" xmlns:xlink="http://www.w3.org/1999/xlink" x="0px" y="0px"
	 viewBox="0 0 50 50" style="enable-background:new 0 0 50 50;" xml:space="preserve">
<style type="text/css">
	.st0{display:none;}
	.st1{display:inline;}
	.st2{fill:#E07A26;}
	.st3{fill:#A75625;}
	.st4{fill:#631E11;}
	.st5{opacity:0.6;fill:#DCDBDB;enable-background:new    ;}
	.st6{fill:#DCDBDB;}
	.st7{fill:#CFCFCE;}
	.st8{opacity:0.1;fill:#FFFFFF;enable-background:new    ;}
	.st9{opacity:0.2;fill:#FFFFFF;enable-background:new    ;}
	.st10{opacity:0.6;fill:#FFFFFF;enable-background:new    ;}
	.st11{fill:#FFFFFF;}
	.st12{fill:#EF2258;}
	.st13{fill:#EF364A;}
	.st14{opacity:0.3;fill:#CC16D6;enable-background:new    ;}
	.st15{fill:url(#SVGID_1_);}
	.st16{fill:#50B4FF;}
	.st17{fill:#FCE668;}
	.st18{fill:url(#SVGID_00000072254508149856372220000006774559839538304401_);}
	.st19{fill:url(#SVGID_00000099631500506222332330000009700147505171562380_);}
	.st20{fill:#3A1D09;}
	.st21{opacity:0.5;fill:#D3A7AF;enable-background:new    ;}
	.st22{opacity:0.22;fill:#FFFFFF;enable-background:new    ;}
	.st23{opacity:0.37;fill:#FFFFFF;enable-background:new    ;}
	.st24{fill:#F7F6D5;}
	.st25{fill:#FCE0EB;}
</style>
<g id="Layer_1_00000135677193601938706360000006040960669273668536_" class="st0">
	<g class="st1">
		<path class="st2" d="M0.74,25.41c0,0.2,0,0.41,0.01,0.61C1.07,39.13,11.81,49.67,25,49.67c7.41,0,14.05-3.33,18.5-8.57
			c2.41-2.84,4.17-6.23,5.08-9.96c0.03-0.12,0.06-0.24,0.08-0.36c0.32-1.42,0.52-2.89,0.57-4.4c0-0.01,0-0.03,0-0.04
			c0.02-0.31,0.02-0.62,0.02-0.93C49.26,12.01,38.4,1.15,25,1.15c-9.78,0-18.22,5.79-22.05,14.14c-0.92,2.01-1.58,4.16-1.93,6.42
			c0,0.02-0.01,0.03-0.01,0.05c0,0.01,0,0.01,0,0.02C1.01,21.8,1,21.82,1,21.85c-0.09,0.62-0.16,1.24-0.2,1.87
			C0.76,24.28,0.74,24.84,0.74,25.41z"/>
		<path class="st3" d="M0.74,25.41c0,0.2,0,0.41,0.01,0.61C1.07,39.13,11.81,49.67,25,49.67c7.41,0,14.05-3.33,18.5-8.57
			c-1.57-0.4-4.2-1.91-8.61-6.07c-9.76-9.22-11.93-12.47-19.24-9.76C8.43,27.95,1.2,21.91,1.02,21.75l0,0L1,21.85l-0.2,1.87
			C0.76,24.28,0.74,24.84,0.74,25.41z"/>
		<path class="st4" d="M1.01,21.77c3.49,3.04,9.6,5.34,14.37,1.33c6.78-5.69,11.65-2.71,22.23,5.96c5.18,4.25,8.67,3.81,10.97,2.07
			c0.03-0.12,0.06-0.24,0.08-0.36c0.32-1.42,0.52-2.89,0.57-4.4c0-0.01,0-0.03,0-0.04c0.02-0.31,0.02-0.62,0.02-0.93
			C49.26,12.01,38.4,1.15,25,1.15c-9.78,0-18.22,5.79-22.05,14.14c-0.92,2.01-1.58,4.16-1.93,6.42C1.02,21.73,1.02,21.75,1.01,21.77
			z"/>
		<path class="st5" d="M34.06,40.99c10.21-7.59,13.21-18.95,9.78-30.86c3.39,4.17,5.42,9.49,5.42,15.28c0,0.31-0.01,0.62-0.02,0.93
			c0,0.01,0,0.03,0,0.04c-0.05,1.51-0.25,2.98-0.57,4.4c-0.03,0.12-0.05,0.24-0.08,0.36C46,41.77,36.42,49.67,25,49.67
			c-6.77,0-12.89-2.77-17.29-7.25C18.44,47.58,27.26,46.04,34.06,40.99z"/>
		<path class="st6" d="M45.26,12.08c2.52,3.83,3.99,8.41,3.99,13.33c0,0.31-0.01,0.62-0.02,0.93c0,0.01,0,0.03,0,0.04
			c-0.05,1.51-0.25,2.98-0.57,4.4c-0.03,0.12-0.05,0.24-0.08,0.36C46,41.77,36.42,49.67,25,49.67c-4.69,0-9.07-1.33-12.78-3.64
			C31.64,53.15,54.11,39.42,45.26,12.08z"/>
		<g>
			<path class="st7" d="M4.54,17.14c0,1.05,0.85,1.9,1.9,1.9s1.9-0.85,1.9-1.9s-0.85-1.9-1.9-1.9C5.39,15.25,4.54,16.09,4.54,17.14z
				"/>
			<path class="st7" d="M4.88,17.14c0,0.86,0.7,1.55,1.55,1.55c0.86,0,1.55-0.69,1.55-1.55c0-0.86-0.7-1.55-1.55-1.55
				C5.58,15.59,4.88,16.29,4.88,17.14z"/>
		</g>
		<g>
			<path class="st7" d="M12.94,9.55c0,1.05,0.85,1.9,1.9,1.9s1.9-0.85,1.9-1.9s-0.85-1.9-1.9-1.9C13.79,7.66,12.94,8.51,12.94,9.55z
				"/>
			<path class="st7" d="M13.28,9.55c0,0.86,0.69,1.55,1.55,1.55c0.86,0,1.55-0.7,1.55-1.55S15.69,8,14.84,8
				C13.98,8,13.28,8.7,13.28,9.55z"/>
		</g>
		<g>
			<path class="st7" d="M13.75,17.14c0,1.05,0.85,1.9,1.9,1.9s1.9-0.85,1.9-1.9s-0.85-1.9-1.9-1.9
				C14.6,15.25,13.75,16.09,13.75,17.14z"/>
			<path class="st7" d="M14.1,17.14c0,0.86,0.69,1.55,1.55,1.55c0.86,0,1.55-0.69,1.55-1.55c0-0.86-0.69-1.55-1.55-1.55
				C14.79,15.59,14.1,16.29,14.1,17.14z"/>
		</g>
		<g>
			<path class="st7" d="M26.22,4.95c0,1.05,0.85,1.9,1.9,1.9s1.9-0.85,1.9-1.9s-0.85-1.9-1.9-1.9C27.07,3.05,26.22,3.9,26.22,4.95z"
				/>
			<circle class="st7" cx="28.12" cy="4.95" r="1.55"/>
		</g>
		<g>
			<path class="st7" d="M20.53,11.99c0,1.05,0.85,1.9,1.9,1.9s1.9-0.85,1.9-1.9s-0.85-1.9-1.9-1.9
				C21.38,10.1,20.53,10.94,20.53,11.99z"/>
			<path class="st7" d="M20.87,11.99c0,0.86,0.7,1.55,1.55,1.55c0.86,0,1.55-0.7,1.55-1.55c0-0.86-0.7-1.55-1.55-1.55
				C21.57,10.44,20.87,11.14,20.87,11.99z"/>
		</g>
		<g>
			<path class="st7" d="M31.64,11.45c0,1.05,0.85,1.9,1.9,1.9c1.05,0,1.9-0.85,1.9-1.9s-0.85-1.9-1.9-1.9
				C32.49,9.55,31.64,10.4,31.64,11.45z"/>
			<path class="st7" d="M31.99,11.45c0,0.86,0.7,1.55,1.55,1.55s1.55-0.7,1.55-1.55c0-0.86-0.7-1.55-1.55-1.55
				S31.99,10.59,31.99,11.45z"/>
		</g>
		<g>
			<path class="st7" d="M33,22.02c0,1.05,0.85,1.9,1.9,1.9c1.05,0,1.9-0.85,1.9-1.9s-0.85-1.9-1.9-1.9S33,20.97,33,22.02z"/>
			<path class="st7" d="M33.34,22.02c0,0.86,0.7,1.55,1.55,1.55c0.86,0,1.55-0.7,1.55-1.55c0-0.86-0.7-1.55-1.55-1.55
				C34.04,20.47,33.34,21.16,33.34,22.02z"/>
		</g>
		<g>
			<path class="st7" d="M43.02,23.65c0,1.05,0.85,1.9,1.9,1.9c1.05,0,1.9-0.85,1.9-1.9s-0.85-1.9-1.9-1.9S43.02,22.6,43.02,23.65z"
				/>
			<circle class="st7" cx="44.92" cy="23.65" r="1.55"/>
		</g>
		<g>
			<path class="st7" d="M38.15,14.97c0,1.05,0.85,1.9,1.9,1.9c1.05,0,1.9-0.85,1.9-1.9s-0.85-1.9-1.9-1.9
				C38.99,13.08,38.15,13.93,38.15,14.97z"/>
			<path class="st7" d="M38.49,14.97c0,0.86,0.7,1.55,1.55,1.55s1.55-0.7,1.55-1.55c0-0.86-0.7-1.55-1.55-1.55
				S38.49,14.12,38.49,14.97z"/>
		</g>
		<g>
			<path class="st8" d="M13.2,41.13c4.2,0.26,2.14-7.01,13.29-17.21C36.25,15,43.2,17.08,43.1,13.43C42.95,7.81,33.85,2.32,25.73,2
				c-11.48-0.46-24.1,9.29-24.4,21.1C1.12,31.45,7.07,40.75,13.2,41.13z"/>
			<path class="st8" d="M25.05,1.56c6.55-0.07,13.68,3.09,13.29,5.41c-0.22,1.35-8.89,0.54-19.38,10.36
				C8.15,27.47,9.72,37.64,8.15,37.84c-1.8,0.23-7.74-8.58-6.76-16.67C2.76,9.83,14.68,1.67,25.05,1.56z"/>
			<path class="st9" d="M34.06,5.23c0.08-0.73-5.08-2.9-10.76-2.48C15.21,3.35,6.74,9.13,3.91,17.37
				C1.62,24.02,3.5,30.82,4.32,30.85c0.78,0.03,0.21-5.93,3.97-12.46c4.76-8.25,13.12-10.8,14.09-11.11
				C28.73,5.26,33.97,5.95,34.06,5.23z"/>
			<path class="st10" d="M22.16,3.47c1.54-0.18,4.58,0.3,3.45,0.75c-1.13,0.45-4.99,1.31-10.66,4.81c-1.95,1.2-3.46-0.23-2.55-1.2
				C13.29,6.85,17.72,3.99,22.16,3.47z"/>
			<path class="st10" d="M10.06,9.75c0.54-0.45,2.77,0.22,2.4,0.53c-3.3,2.78-5.33,5.33-7.13,9.31S4.66,14.26,10.06,9.75z"/>
		</g>
		<path class="st11" d="M45.74,40.45c0,0-0.18,0.21-0.45,0.54C45.65,40.76,45.74,40.45,45.74,40.45z"/>
	</g>
</g>
<g id="Layer_2_00000139252441781453883360000015657099723476822454_">
	<g>
		<path class="st12" d="M0.93,25c0,0.2,0,0.4,0.01,0.6c0.06,2.29,0.43,4.5,1.09,6.59c0.98,3.14,2.58,5.99,4.67,8.43
			c3.29,3.86,7.78,6.66,12.89,7.83c1.74,0.4,3.56,0.61,5.42,0.61c1.43,0,2.83-0.12,4.19-0.36c5.17-0.91,9.77-3.46,13.24-7.11
			c2.22-2.33,3.98-5.11,5.13-8.19c0.37-1,0.68-2.03,0.92-3.08c0.32-1.41,0.51-2.87,0.57-4.36c0-0.01,0-0.03,0-0.04
			c0.02-0.31,0.02-0.62,0.02-0.93c0-2.33-0.33-4.59-0.95-6.72c-0.92-3.19-2.49-6.1-4.55-8.59c-3.28-3.97-7.81-6.88-13-8.1
			c-1.8-0.42-3.66-0.65-5.58-0.65c-1.42,0-2.82,0.12-4.17,0.36c-5.29,0.93-9.98,3.58-13.48,7.35c-1.72,1.86-3.15,3.99-4.22,6.31
			c-0.3,0.65-0.57,1.31-0.81,1.99c-0.5,1.4-0.87,2.87-1.1,4.37C1.03,22.52,0.93,23.75,0.93,25z"/>
		<g>
			<path class="st13" d="M34.28,9.54c0,1.19,0.96,2.15,2.15,2.15c1.19,0,2.15-0.96,2.15-2.15s-0.96-2.15-2.15-2.15
				C35.24,7.39,34.28,8.35,34.28,9.54z"/>
			<path class="st13" d="M31.05,13.57c0,0.59,0.48,1.08,1.08,1.08c0.59,0,1.08-0.48,1.08-1.08c0-0.59-0.48-1.08-1.08-1.08
				C31.53,12.5,31.05,12.98,31.05,13.57z"/>
		</g>
		<g>
			<path class="st13" d="M43.21,25.25c-1.03,0.59-1.38,1.91-0.79,2.94s1.91,1.38,2.94,0.79c1.03-0.59,1.38-1.91,0.79-2.94
				C45.56,25.01,44.24,24.66,43.21,25.25z"/>
			<path class="st13" d="M38.11,24.48c-0.51,0.3-0.69,0.95-0.39,1.47c0.3,0.51,0.95,0.69,1.47,0.39c0.51-0.3,0.69-0.95,0.39-1.47
				C39.28,24.36,38.62,24.18,38.11,24.48z"/>
		</g>
		<g>
			<path class="st13" d="M34.07,40.85c-1.03-0.59-2.34-0.24-2.94,0.79c-0.59,1.03-0.24,2.34,0.79,2.94
				c1.03,0.59,2.34,0.24,2.94-0.79C35.45,42.76,35.1,41.44,34.07,40.85z"/>
			<path class="st13" d="M32.19,36.04c-0.51-0.3-1.17-0.12-1.47,0.39s-0.12,1.17,0.39,1.47c0.51,0.3,1.17,0.12,1.47-0.39
				C32.88,36.99,32.7,36.34,32.19,36.04z"/>
		</g>
		<g>
			<path class="st13" d="M15.99,40.73c0-1.19-0.96-2.15-2.15-2.15s-2.15,0.96-2.15,2.15s0.96,2.15,2.15,2.15
				S15.99,41.92,15.99,40.73z"/>
			<path class="st13" d="M19.22,36.7c0-0.59-0.48-1.08-1.08-1.08c-0.59,0-1.08,0.48-1.08,1.08c0,0.59,0.48,1.08,1.08,1.08
				C18.74,37.77,19.22,37.29,19.22,36.7z"/>
		</g>
		<g>
			<path class="st13" d="M7.06,25.01c1.03-0.59,1.38-1.91,0.79-2.94s-1.91-1.38-2.94-0.79c-1.03,0.59-1.38,1.91-0.79,2.94
				C4.71,25.26,6.03,25.61,7.06,25.01z"/>
			<path class="st13" d="M26.2,27.04c1.03-0.59,1.38-1.91,0.79-2.94c-0.59-1.03-1.91-1.38-2.94-0.79c-1.03,0.59-1.38,1.91-0.79,2.94
				C23.86,27.28,25.17,27.64,26.2,27.04z"/>
			<path class="st13" d="M26.2,27.04c1.03-0.59,1.38-1.91,0.79-2.94c-0.59-1.03-1.91-1.38-2.94-0.79c-1.03,0.59-1.38,1.91-0.79,2.94
				C23.86,27.28,25.17,27.64,26.2,27.04z"/>
			<path class="st13" d="M12.16,25.79c0.51-0.3,0.69-0.96,0.39-1.47c-0.3-0.51-0.95-0.69-1.47-0.39c-0.51,0.3-0.69,0.95-0.39,1.47
				C10.99,25.91,11.65,26.09,12.16,25.79z"/>
		</g>
		<g>
			<path class="st13" d="M16.2,9.42c1.03,0.59,2.34,0.24,2.94-0.79c0.59-1.03,0.24-2.34-0.79-2.94c-1.03-0.59-2.34-0.24-2.94,0.79
				C14.82,7.51,15.17,8.82,16.2,9.42z"/>
			<path class="st13" d="M18.08,14.23c0.51,0.3,1.17,0.12,1.47-0.39s0.12-1.17-0.39-1.47s-1.17-0.12-1.47,0.39
				C17.39,13.28,17.56,13.93,18.08,14.23z"/>
		</g>
		<path class="st14" d="M15.55,43.08c1.74,0.4,3.55,0.61,5.42,0.61c1.43,0,2.83-0.12,4.19-0.36c5.17-0.91,9.77-3.46,13.24-7.11
			c2.22-2.33,3.98-5.11,5.13-8.19c0.37-1,0.68-2.03,0.92-3.08c0.32-1.41,0.51-2.87,0.57-4.36c0-0.01,0-0.03,0-0.04
			c0.02-0.31,0.02-0.62,0.02-0.92c0-2.33-0.33-4.59-0.95-6.72c-0.5-1.71-1.18-3.34-2.03-4.88c0.53,0.53,1.04,1.08,1.51,1.66
			c2.06,2.49,3.62,5.41,4.55,8.59c0.62,2.13,0.95,4.39,0.95,6.72c0,0.31-0.01,0.62-0.02,0.93c0,0.01,0,0.03,0,0.04
			c-0.05,1.49-0.25,2.95-0.57,4.36c-0.24,1.06-0.55,2.09-0.92,3.08c-1.15,3.08-2.91,5.85-5.13,8.19c-3.47,3.64-8.07,6.2-13.24,7.11
			c-1.36,0.24-2.76,0.36-4.19,0.36c-1.86,0-3.68-0.21-5.42-0.61c-5.11-1.18-9.6-3.98-12.89-7.83c-1.06-1.24-1.99-2.59-2.78-4.02
			C7.05,39.75,11.06,42.04,15.55,43.08z"/>
		<g>
			<linearGradient id="SVGID_1_" gradientUnits="userSpaceOnUse" x1="20.3721" y1="13.03" x2="30.2055" y2="13.03">
				<stop  offset="0" style="stop-color:#FFFFFF"/>
				<stop  offset="0.2069" style="stop-color:#2F9631"/>
			</linearGradient>
			<path class="st15" d="M25.13,25.13c-5.91-8.41,1.62-8.88,5.38-16.59c1.36-2.79,1.03-5.13,0.06-6.96
				C28.78,1.16,26.92,0.93,25,0.93c-1.42,0-2.82,0.12-4.17,0.36c2.65,2.8,4.95,6.98,1.62,11.46C16.6,20.6,24.94,25.03,25.13,25.13z"
				/>
			<path class="st16" d="M25.13,25.13c4.33-9.33,8.49-3.04,17.05-3.64c2.98-0.21,4.8-1.55,5.92-3.22c-0.92-3.19-2.49-6.1-4.55-8.59
				c-1.13,3.64-3.61,7.57-9.05,6.93C24.68,15.46,25.13,25.13,25.13,25.13z"/>
			<path class="st17" d="M25.13,25.13c10.24-0.92,6.88,5.83,11.68,12.95c1.63,2.42,3.65,3.35,5.62,3.51
				c2.22-2.33,3.98-5.11,5.13-8.19c-3.68,0.8-8.21,0.54-10.35-4.42C33.28,19.9,25.13,25.13,25.13,25.13z"/>
			
				<linearGradient id="SVGID_00000050643701179195068530000001186258384258522770_" gradientUnits="userSpaceOnUse" x1="18.8472" y1="37.095" x2="29.8978" y2="37.095">
				<stop  offset="0" style="stop-color:#FFFFFF"/>
				<stop  offset="0.4474" style="stop-color:#8E0E57"/>
			</linearGradient>
			<path style="fill:url(#SVGID_00000050643701179195068530000001186258384258522770_);" d="M19.58,48.45
				c1.74,0.4,3.56,0.61,5.42,0.61c1.43,0,2.83-0.12,4.19-0.36c-2.54-2.79-4.6-6.85-1.37-11.19c5.85-7.85-2.49-12.28-2.69-12.38
				c5.91,8.41-1.62,8.88-5.38,16.59C18.45,44.4,18.7,46.65,19.58,48.45z"/>
			
				<linearGradient id="SVGID_00000136390510801128965700000016256431084940216465_" gradientUnits="userSpaceOnUse" x1="2.03" y1="32.875" x2="25.1434" y2="32.875">
				<stop  offset="0" style="stop-color:#FFFFFF"/>
				<stop  offset="0.4794" style="stop-color:#A0022F"/>
			</linearGradient>
			<path style="fill:url(#SVGID_00000136390510801128965700000016256431084940216465_);" d="M2.03,32.19
				c0.98,3.14,2.58,5.99,4.67,8.43c1.12-3.65,3.6-7.61,9.06-6.97c9.84,1.15,9.38-8.52,9.38-8.52c-4.33,9.33-8.49,3.04-17.05,3.64
				C4.99,28.99,3.13,30.43,2.03,32.19z"/>
			<path class="st20" d="M2.32,16.95c3.75-0.9,8.53-0.81,10.75,4.32c3.92,9.09,12.07,3.86,12.07,3.86
				c-10.24,0.92-6.88-5.84-11.68-12.95c-1.77-2.62-4-3.49-6.11-3.54c-1.72,1.86-3.15,3.99-4.22,6.31
				C2.83,15.61,2.56,16.27,2.32,16.95z"/>
		</g>
		<path class="st21" d="M18.24,47.11c1.74,0.4,3.55,0.61,5.42,0.61c1.43,0,2.83-0.12,4.19-0.36c5.17-0.91,9.77-3.46,13.24-7.11
			c2.22-2.33,3.98-5.11,5.13-8.19c0.37-1,0.68-2.03,0.92-3.08c0.32-1.41,0.51-2.87,0.57-4.36c0-0.01,0-0.03,0-0.04
			c0.02-0.31,0.02-0.62,0.02-0.92c0-2.33-0.33-4.59-0.95-6.72c-0.92-3.19-2.49-6.1-4.54-8.59c-0.06-0.11-0.11-0.22-0.17-0.32
			c0.53,0.53,1.04,1.08,1.51,1.66c2.06,2.49,3.62,5.41,4.55,8.59c0.62,2.13,0.95,4.39,0.95,6.72c0,0.31-0.01,0.62-0.02,0.93
			c0,0.01,0,0.03,0,0.04c-0.05,1.49-0.25,2.95-0.57,4.36c-0.24,1.06-0.55,2.09-0.92,3.08c-1.15,3.08-2.91,5.85-5.13,8.19
			c-3.47,3.64-8.07,6.2-13.24,7.11c-1.36,0.24-2.76,0.36-4.19,0.36c-1.86,0-3.68-0.21-5.42-0.61c-4.79-1.1-9.03-3.63-12.25-7.12
			C10.35,44.13,14.09,46.15,18.24,47.11z"/>
		<g>
			<path class="st9" d="M11.99,39.05c3.9,0.24,4.95-3.59,15.3-13.05c9.05-8.28,12.53-9.26,12.44-12.65
				c-0.14-5.21-8.58-10.3-16.11-10.6C12.97,2.32,1.25,11.36,0.98,22.33C0.78,30.08,6.3,38.7,11.99,39.05z"/>
			<path class="st22" d="M22.98,2.34c6.08-0.06,12.69,2.87,12.33,5.02c-0.21,1.25-8.25,0.5-17.98,9.62C7.3,26.38,8.76,35.82,7.3,36
				c-1.67,0.21-7.18-7.96-6.27-15.47C2.3,10.02,13.36,2.45,22.98,2.34z"/>
			<path class="st23" d="M31.77,5.61c0.08-0.68-4.71-2.69-9.98-2.3C14.28,3.87,6.43,9.23,3.8,16.88
				c-2.12,6.17-0.38,12.48,0.38,12.51c0.73,0.03-0.04-5.73,3.46-11.78C12.05,9.94,20.11,7.25,21.02,6.96
				C26.91,5.09,31.69,6.28,31.77,5.61z"/>
			<path class="st24" d="M20.44,4.07c1.43-0.17,4.25,0.28,3.21,0.7c-1.05,0.42-4.63,1.22-9.89,4.46c-1.81,1.12-3.21-0.21-2.37-1.11
				C12.22,7.21,16.33,4.56,20.44,4.07z"/>
			<path class="st25" d="M9.22,9.91c0.51-0.42,2.57,0.2,2.23,0.49c-3.07,2.58-4.95,4.95-6.62,8.64S4.2,14.09,9.22,9.91z"/>
		</g>
	</g>
</g>
</svg>
