<?xml version="1.0" encoding="utf-8"?>
<!-- Generator: Adobe Illustrator 27.6.1, SVG Export Plug-In . SVG Version: 6.00 Build 0)  -->
<svg version="1.1" xmlns="http://www.w3.org/2000/svg" xmlns:xlink="http://www.w3.org/1999/xlink" x="0px" y="0px"
	 viewBox="0 0 50 50" style="enable-background:new 0 0 50 50;" xml:space="preserve">
<style type="text/css">
	.st0{display:none;}
	.st1{display:inline;}
	.st2{fill:#E07A26;}
	.st3{fill:#A75625;}
	.st4{fill:#631E11;}
	.st5{opacity:0.6;fill:#DCDBDB;}
	.st6{fill:#DCDBDB;}
	.st7{fill:#CFCFCE;}
	.st8{opacity:0.1;fill:#FFFFFF;}
	.st9{opacity:0.2;fill:#FFFFFF;}
	.st10{opacity:0.6;fill:#FFFFFF;}
	.st11{fill:#FFFFFF;}
	.st12{fill:#FAF2E4;}
	.st13{fill:#EF364A;}
	.st14{opacity:0.3;fill:#D3A7AF;}
	.st15{opacity:0.5;fill:#D3A7AF;}
	.st16{opacity:0.22;fill:#FFFFFF;}
	.st17{opacity:0.37;fill:#FFFFFF;}
	.st18{fill:#4EA747;}
	.st19{fill:#E2ECAE;}
	.st20{opacity:0.5;fill:#D7E4A8;}
	.st21{fill:#D7E4A8;}
	.st22{opacity:0.25;fill:#FFFFFF;}
	.st23{fill:#694A9E;}
	.st24{fill:#D8C7E1;}
	.st25{fill:url(#SVGID_1_);}
	.st26{opacity:0.5;fill:#D3C3E0;}
	.st27{opacity:0.9;fill:#D3C3E0;}
	.st28{fill:#CCCCCC;}
	.st29{opacity:0.8;fill:#D3C3E0;}
	.st30{clip-path:url(#SVGID_00000141449549737518678140000009614157375266154677_);fill:#E07A26;}
	.st31{opacity:0.2;clip-path:url(#SVGID_00000141449549737518678140000009614157375266154677_);fill:#FFFFFF;}
	.st32{opacity:0.22;clip-path:url(#SVGID_00000141449549737518678140000009614157375266154677_);fill:#FFFFFF;}
	.st33{fill:#F8BF6A;}
	.st34{opacity:0.5;fill:#D2AE90;}
</style>
<g id="Layer_1" class="st0">
	<g class="st1">
		<path class="st2" d="M0.74,25.41c0,0.2,0,0.41,0.01,0.61C1.07,39.13,11.81,49.67,25,49.67c7.41,0,14.05-3.33,18.5-8.57
			c2.41-2.84,4.17-6.23,5.08-9.96c0.03-0.12,0.06-0.24,0.08-0.36c0.32-1.42,0.52-2.89,0.57-4.4c0-0.01,0-0.03,0-0.04
			c0.02-0.31,0.02-0.62,0.02-0.93C49.26,12.01,38.4,1.15,25,1.15c-9.78,0-18.22,5.79-22.05,14.14c-0.92,2.01-1.58,4.16-1.93,6.42
			c0,0.02-0.01,0.03-0.01,0.05c0,0.01,0,0.01,0,0.02C1.01,21.8,1,21.82,1,21.85c-0.09,0.62-0.16,1.24-0.2,1.87
			C0.76,24.28,0.74,24.84,0.74,25.41z"/>
		<path class="st3" d="M0.74,25.41c0,0.2,0,0.41,0.01,0.61C1.07,39.13,11.81,49.67,25,49.67c7.41,0,14.05-3.33,18.5-8.57
			c-1.57-0.4-4.2-1.91-8.61-6.07c-9.76-9.22-11.93-12.47-19.24-9.76C8.43,27.95,1.2,21.91,1.02,21.75c0,0,0,0,0,0L1,21.85l-0.2,1.87
			C0.76,24.28,0.74,24.84,0.74,25.41z"/>
		<path class="st4" d="M1.01,21.77c3.49,3.04,9.6,5.34,14.37,1.33c6.78-5.69,11.65-2.71,22.23,5.96c5.18,4.25,8.67,3.81,10.97,2.07
			c0.03-0.12,0.06-0.24,0.08-0.36c0.32-1.42,0.52-2.89,0.57-4.4c0-0.01,0-0.03,0-0.04c0.02-0.31,0.02-0.62,0.02-0.93
			C49.26,12.01,38.4,1.15,25,1.15c-9.78,0-18.22,5.79-22.05,14.14c-0.92,2.01-1.58,4.16-1.93,6.42C1.02,21.73,1.02,21.75,1.01,21.77
			z"/>
		<path class="st5" d="M34.06,40.99c10.21-7.59,13.21-18.95,9.78-30.86c3.39,4.17,5.42,9.49,5.42,15.28c0,0.31-0.01,0.62-0.02,0.93
			c0,0.01,0,0.03,0,0.04c-0.05,1.51-0.25,2.98-0.57,4.4c-0.03,0.12-0.05,0.24-0.08,0.36C46,41.77,36.42,49.67,25,49.67
			c-6.77,0-12.89-2.77-17.29-7.25C18.44,47.58,27.26,46.04,34.06,40.99z"/>
		<path class="st6" d="M45.26,12.08c2.52,3.83,3.99,8.41,3.99,13.33c0,0.31-0.01,0.62-0.02,0.93c0,0.01,0,0.03,0,0.04
			c-0.05,1.51-0.25,2.98-0.57,4.4c-0.03,0.12-0.05,0.24-0.08,0.36C46,41.77,36.42,49.67,25,49.67c-4.69,0-9.07-1.33-12.78-3.64
			C31.64,53.15,54.11,39.42,45.26,12.08z"/>
		<g>
			<path class="st7" d="M4.54,17.14c0,1.05,0.85,1.9,1.9,1.9c1.05,0,1.9-0.85,1.9-1.9c0-1.05-0.85-1.9-1.9-1.9
				C5.39,15.25,4.54,16.09,4.54,17.14z"/>
			<path class="st7" d="M4.88,17.14c0,0.86,0.7,1.55,1.55,1.55c0.86,0,1.55-0.69,1.55-1.55c0-0.86-0.7-1.55-1.55-1.55
				C5.58,15.59,4.88,16.29,4.88,17.14z"/>
		</g>
		<g>
			<path class="st7" d="M12.94,9.55c0,1.05,0.85,1.9,1.9,1.9c1.05,0,1.9-0.85,1.9-1.9c0-1.05-0.85-1.9-1.9-1.9
				C13.79,7.66,12.94,8.51,12.94,9.55z"/>
			<path class="st7" d="M13.28,9.55c0,0.86,0.69,1.55,1.55,1.55c0.86,0,1.55-0.7,1.55-1.55S15.69,8,14.84,8
				C13.98,8,13.28,8.7,13.28,9.55z"/>
		</g>
		<g>
			<path class="st7" d="M13.75,17.14c0,1.05,0.85,1.9,1.9,1.9c1.05,0,1.9-0.85,1.9-1.9c0-1.05-0.85-1.9-1.9-1.9
				C14.6,15.25,13.75,16.09,13.75,17.14z"/>
			<path class="st7" d="M14.1,17.14c0,0.86,0.69,1.55,1.55,1.55c0.86,0,1.55-0.69,1.55-1.55c0-0.86-0.69-1.55-1.55-1.55
				C14.79,15.59,14.1,16.29,14.1,17.14z"/>
		</g>
		<g>
			<path class="st7" d="M26.22,4.95c0,1.05,0.85,1.9,1.9,1.9c1.05,0,1.9-0.85,1.9-1.9c0-1.05-0.85-1.9-1.9-1.9
				C27.07,3.05,26.22,3.9,26.22,4.95z"/>
			<circle class="st7" cx="28.12" cy="4.95" r="1.55"/>
		</g>
		<g>
			<path class="st7" d="M20.53,11.99c0,1.05,0.85,1.9,1.9,1.9c1.05,0,1.9-0.85,1.9-1.9c0-1.05-0.85-1.9-1.9-1.9
				C21.38,10.1,20.53,10.94,20.53,11.99z"/>
			<path class="st7" d="M20.87,11.99c0,0.86,0.7,1.55,1.55,1.55c0.86,0,1.55-0.7,1.55-1.55c0-0.86-0.7-1.55-1.55-1.55
				C21.57,10.44,20.87,11.14,20.87,11.99z"/>
		</g>
		<g>
			<path class="st7" d="M31.64,11.45c0,1.05,0.85,1.9,1.9,1.9c1.05,0,1.9-0.85,1.9-1.9c0-1.05-0.85-1.9-1.9-1.9
				C32.49,9.55,31.64,10.4,31.64,11.45z"/>
			<path class="st7" d="M31.99,11.45c0,0.86,0.7,1.55,1.55,1.55s1.55-0.7,1.55-1.55c0-0.86-0.7-1.55-1.55-1.55
				S31.99,10.59,31.99,11.45z"/>
		</g>
		<g>
			<path class="st7" d="M33,22.02c0,1.05,0.85,1.9,1.9,1.9c1.05,0,1.9-0.85,1.9-1.9c0-1.05-0.85-1.9-1.9-1.9
				C33.85,20.12,33,20.97,33,22.02z"/>
			<path class="st7" d="M33.34,22.02c0,0.86,0.7,1.55,1.55,1.55c0.86,0,1.55-0.7,1.55-1.55c0-0.86-0.7-1.55-1.55-1.55
				C34.04,20.47,33.34,21.16,33.34,22.02z"/>
		</g>
		<g>
			<path class="st7" d="M43.02,23.65c0,1.05,0.85,1.9,1.9,1.9c1.05,0,1.9-0.85,1.9-1.9c0-1.05-0.85-1.9-1.9-1.9
				C43.87,21.75,43.02,22.6,43.02,23.65z"/>
			<circle class="st7" cx="44.92" cy="23.65" r="1.55"/>
		</g>
		<g>
			<path class="st7" d="M38.15,14.97c0,1.05,0.85,1.9,1.9,1.9c1.05,0,1.9-0.85,1.9-1.9c0-1.05-0.85-1.9-1.9-1.9
				C38.99,13.08,38.15,13.93,38.15,14.97z"/>
			<path class="st7" d="M38.49,14.97c0,0.86,0.7,1.55,1.55,1.55s1.55-0.7,1.55-1.55c0-0.86-0.7-1.55-1.55-1.55
				S38.49,14.12,38.49,14.97z"/>
		</g>
		<g>
			<path class="st8" d="M13.2,41.13c4.2,0.26,2.14-7.01,13.29-17.21C36.25,15,43.2,17.08,43.1,13.43C42.95,7.81,33.85,2.32,25.73,2
				c-11.48-0.46-24.1,9.29-24.4,21.1C1.12,31.45,7.07,40.75,13.2,41.13z"/>
			<path class="st8" d="M25.05,1.56c6.55-0.07,13.68,3.09,13.29,5.41c-0.22,1.35-8.89,0.54-19.38,10.36
				C8.15,27.47,9.72,37.64,8.15,37.84c-1.8,0.23-7.74-8.58-6.76-16.67C2.76,9.83,14.68,1.67,25.05,1.56z"/>
			<path class="st9" d="M34.06,5.23c0.08-0.73-5.08-2.9-10.76-2.48C15.21,3.35,6.74,9.13,3.91,17.37
				C1.62,24.02,3.5,30.82,4.32,30.85c0.78,0.03,0.21-5.93,3.97-12.46c4.76-8.25,13.12-10.8,14.09-11.11
				C28.73,5.26,33.97,5.95,34.06,5.23z"/>
			<path class="st10" d="M22.16,3.47c1.54-0.18,4.58,0.3,3.45,0.75c-1.13,0.45-4.99,1.31-10.66,4.81c-1.95,1.2-3.46-0.23-2.55-1.2
				C13.29,6.85,17.72,3.99,22.16,3.47z"/>
			<path class="st10" d="M10.06,9.75c0.54-0.45,2.77,0.22,2.4,0.53c-3.3,2.78-5.33,5.33-7.13,9.31C3.53,23.57,4.66,14.26,10.06,9.75
				z"/>
		</g>
		<path class="st11" d="M45.74,40.45c0,0-0.18,0.21-0.45,0.54C45.65,40.76,45.74,40.45,45.74,40.45z"/>
	</g>
</g>
<g id="Layer_2" class="st0">
	<g class="st1">
		<path class="st12" d="M0.93,25c0,0.2,0,0.4,0.01,0.6c0.06,2.29,0.43,4.5,1.09,6.59c0.98,3.14,2.58,5.99,4.67,8.43
			c3.29,3.86,7.78,6.66,12.89,7.83c1.74,0.4,3.56,0.61,5.42,0.61c1.43,0,2.83-0.12,4.19-0.36c5.17-0.91,9.77-3.46,13.24-7.11
			c2.22-2.33,3.98-5.11,5.13-8.19c0.37-1,0.68-2.03,0.92-3.08c0.32-1.41,0.51-2.87,0.57-4.36c0-0.01,0-0.03,0-0.04
			c0.02-0.31,0.02-0.62,0.02-0.93c0-2.33-0.33-4.59-0.95-6.72c-0.92-3.19-2.49-6.1-4.55-8.59c-3.28-3.97-7.81-6.88-13-8.1
			C28.78,1.16,26.92,0.93,25,0.93c-1.42,0-2.82,0.12-4.17,0.36c-5.29,0.93-9.98,3.58-13.48,7.35c-1.72,1.86-3.15,3.99-4.22,6.31
			c-0.3,0.65-0.57,1.31-0.81,1.99c-0.5,1.4-0.87,2.87-1.1,4.37C1.03,22.52,0.93,23.75,0.93,25z"/>
		<g>
			<path class="st13" d="M34.28,9.54c0,1.19,0.96,2.15,2.15,2.15c1.19,0,2.15-0.96,2.15-2.15c0-1.19-0.96-2.15-2.15-2.15
				C35.24,7.39,34.28,8.35,34.28,9.54z"/>
			<path class="st13" d="M31.05,13.57c0,0.59,0.48,1.08,1.08,1.08c0.59,0,1.08-0.48,1.08-1.08c0-0.59-0.48-1.08-1.08-1.08
				C31.53,12.5,31.05,12.98,31.05,13.57z"/>
		</g>
		<g>
			<path class="st13" d="M43.21,25.25c-1.03,0.59-1.38,1.91-0.79,2.94c0.59,1.03,1.91,1.38,2.94,0.79c1.03-0.59,1.38-1.91,0.79-2.94
				C45.56,25.01,44.24,24.66,43.21,25.25z"/>
			<path class="st13" d="M38.11,24.48c-0.51,0.3-0.69,0.95-0.39,1.47c0.3,0.51,0.95,0.69,1.47,0.39c0.51-0.3,0.69-0.95,0.39-1.47
				C39.28,24.36,38.62,24.18,38.11,24.48z"/>
		</g>
		<g>
			<path class="st13" d="M34.07,40.85c-1.03-0.59-2.34-0.24-2.94,0.79c-0.59,1.03-0.24,2.34,0.79,2.94
				c1.03,0.59,2.34,0.24,2.94-0.79C35.45,42.76,35.1,41.44,34.07,40.85z"/>
			<path class="st13" d="M32.19,36.04c-0.51-0.3-1.17-0.12-1.47,0.39c-0.3,0.51-0.12,1.17,0.39,1.47c0.51,0.3,1.17,0.12,1.47-0.39
				C32.88,36.99,32.7,36.34,32.19,36.04z"/>
		</g>
		<g>
			<path class="st13" d="M15.99,40.73c0-1.19-0.96-2.15-2.15-2.15c-1.19,0-2.15,0.96-2.15,2.15s0.96,2.15,2.15,2.15
				C15.03,42.88,15.99,41.92,15.99,40.73z"/>
			<path class="st13" d="M19.22,36.7c0-0.59-0.48-1.08-1.08-1.08c-0.59,0-1.08,0.48-1.08,1.08c0,0.59,0.48,1.08,1.08,1.08
				C18.74,37.77,19.22,37.29,19.22,36.7z"/>
		</g>
		<g>
			<path class="st13" d="M7.06,25.01c1.03-0.59,1.38-1.91,0.79-2.94c-0.59-1.03-1.91-1.38-2.94-0.79c-1.03,0.59-1.38,1.91-0.79,2.94
				C4.71,25.26,6.03,25.61,7.06,25.01z"/>
			<path class="st13" d="M26.2,27.04c1.03-0.59,1.38-1.91,0.79-2.94c-0.59-1.03-1.91-1.38-2.94-0.79c-1.03,0.59-1.38,1.91-0.79,2.94
				C23.86,27.28,25.17,27.64,26.2,27.04z"/>
			<path class="st13" d="M26.2,27.04c1.03-0.59,1.38-1.91,0.79-2.94c-0.59-1.03-1.91-1.38-2.94-0.79c-1.03,0.59-1.38,1.91-0.79,2.94
				C23.86,27.28,25.17,27.64,26.2,27.04z"/>
			<path class="st13" d="M12.16,25.79c0.51-0.3,0.69-0.96,0.39-1.47c-0.3-0.51-0.95-0.69-1.47-0.39c-0.51,0.3-0.69,0.95-0.39,1.47
				C10.99,25.91,11.65,26.09,12.16,25.79z"/>
		</g>
		<g>
			<path class="st13" d="M16.2,9.42c1.03,0.59,2.34,0.24,2.94-0.79c0.59-1.03,0.24-2.34-0.79-2.94c-1.03-0.59-2.34-0.24-2.94,0.79
				C14.82,7.51,15.17,8.82,16.2,9.42z"/>
			<path class="st13" d="M18.08,14.23c0.51,0.3,1.17,0.12,1.47-0.39c0.3-0.51,0.12-1.17-0.39-1.47c-0.51-0.3-1.17-0.12-1.47,0.39
				C17.39,13.28,17.56,13.93,18.08,14.23z"/>
		</g>
		<path class="st14" d="M15.55,43.08c1.74,0.4,3.55,0.61,5.42,0.61c1.43,0,2.83-0.12,4.19-0.36c5.17-0.91,9.77-3.46,13.24-7.11
			c2.22-2.33,3.98-5.11,5.13-8.19c0.37-1,0.68-2.03,0.92-3.08c0.32-1.41,0.51-2.87,0.57-4.36c0-0.01,0-0.03,0-0.04
			c0.02-0.31,0.02-0.62,0.02-0.92c0-2.33-0.33-4.59-0.95-6.72c-0.5-1.71-1.18-3.34-2.03-4.88c0.53,0.53,1.04,1.08,1.51,1.66
			c2.06,2.49,3.62,5.41,4.55,8.59c0.62,2.13,0.95,4.39,0.95,6.72c0,0.31-0.01,0.62-0.02,0.93c0,0.01,0,0.03,0,0.04
			c-0.05,1.49-0.25,2.95-0.57,4.36c-0.24,1.06-0.55,2.09-0.92,3.08c-1.15,3.08-2.91,5.85-5.13,8.19c-3.47,3.64-8.07,6.2-13.24,7.11
			c-1.36,0.24-2.76,0.36-4.19,0.36c-1.86,0-3.68-0.21-5.42-0.61c-5.11-1.18-9.6-3.98-12.89-7.83c-1.06-1.24-1.99-2.59-2.78-4.02
			C7.05,39.75,11.06,42.04,15.55,43.08z"/>
		<g>
			<path class="st13" d="M25.13,25.13c-5.91-8.41,1.62-8.88,5.38-16.59c1.36-2.79,1.03-5.13,0.06-6.96
				C28.78,1.16,26.92,0.93,25,0.93c-1.42,0-2.82,0.12-4.17,0.36c2.65,2.8,4.95,6.98,1.62,11.46C16.6,20.6,24.94,25.03,25.13,25.13z"
				/>
			<path class="st13" d="M25.13,25.13c4.33-9.33,8.49-3.04,17.05-3.64c2.98-0.21,4.8-1.55,5.92-3.22c-0.92-3.19-2.49-6.1-4.55-8.59
				c-1.13,3.64-3.61,7.57-9.05,6.93C24.68,15.46,25.13,25.13,25.13,25.13z"/>
			<path class="st13" d="M25.13,25.13c10.24-0.92,6.88,5.83,11.68,12.95c1.63,2.42,3.65,3.35,5.62,3.51
				c2.22-2.33,3.98-5.11,5.13-8.19c-3.68,0.8-8.21,0.54-10.35-4.42C33.28,19.9,25.13,25.13,25.13,25.13z"/>
			<path class="st13" d="M19.58,48.45c1.74,0.4,3.56,0.61,5.42,0.61c1.43,0,2.83-0.12,4.19-0.36c-2.54-2.79-4.6-6.85-1.37-11.19
				c5.85-7.85-2.49-12.28-2.69-12.38c5.91,8.41-1.62,8.88-5.38,16.59C18.45,44.4,18.7,46.65,19.58,48.45z"/>
			<path class="st13" d="M2.03,32.19c0.98,3.14,2.58,5.99,4.67,8.43c1.12-3.65,3.6-7.61,9.06-6.97c9.84,1.15,9.38-8.52,9.38-8.52
				c-4.33,9.33-8.49,3.04-17.05,3.64C4.99,28.99,3.13,30.43,2.03,32.19z"/>
			<path class="st13" d="M2.32,16.95c3.75-0.9,8.53-0.81,10.75,4.32c3.92,9.09,12.07,3.86,12.07,3.86
				c-10.24,0.92-6.88-5.84-11.68-12.95c-1.77-2.62-4-3.49-6.11-3.54c-1.72,1.86-3.15,3.99-4.22,6.31
				C2.83,15.61,2.56,16.27,2.32,16.95z"/>
		</g>
		<path class="st15" d="M18.24,47.11c1.74,0.4,3.55,0.61,5.42,0.61c1.43,0,2.83-0.12,4.19-0.36c5.17-0.91,9.77-3.46,13.24-7.11
			c2.22-2.33,3.98-5.11,5.13-8.19c0.37-1,0.68-2.03,0.92-3.08c0.32-1.41,0.51-2.87,0.57-4.36c0-0.01,0-0.03,0-0.04
			c0.02-0.31,0.02-0.62,0.02-0.92c0-2.33-0.33-4.59-0.95-6.72c-0.92-3.19-2.49-6.1-4.54-8.59c-0.06-0.11-0.11-0.22-0.17-0.32
			c0.53,0.53,1.04,1.08,1.51,1.66c2.06,2.49,3.62,5.41,4.55,8.59c0.62,2.13,0.95,4.39,0.95,6.72c0,0.31-0.01,0.62-0.02,0.93
			c0,0.01,0,0.03,0,0.04c-0.05,1.49-0.25,2.95-0.57,4.36c-0.24,1.06-0.55,2.09-0.92,3.08c-1.15,3.08-2.91,5.85-5.13,8.19
			c-3.47,3.64-8.07,6.2-13.24,7.11c-1.36,0.24-2.76,0.36-4.19,0.36c-1.86,0-3.68-0.21-5.42-0.61c-4.79-1.1-9.03-3.63-12.25-7.12
			C10.35,44.13,14.09,46.15,18.24,47.11z"/>
		<g>
			<path class="st9" d="M11.99,39.05c3.9,0.24,4.95-3.59,15.3-13.05c9.05-8.28,12.53-9.26,12.44-12.65
				C39.59,8.14,31.15,3.05,23.62,2.75C12.97,2.32,1.25,11.36,0.98,22.33C0.78,30.08,6.3,38.7,11.99,39.05z"/>
			<path class="st16" d="M22.98,2.34c6.08-0.06,12.69,2.87,12.33,5.02c-0.21,1.25-8.25,0.5-17.98,9.62C7.3,26.38,8.76,35.82,7.3,36
				c-1.67,0.21-7.18-7.96-6.27-15.47C2.3,10.02,13.36,2.45,22.98,2.34z"/>
			<path class="st17" d="M31.77,5.61c0.08-0.68-4.71-2.69-9.98-2.3C14.28,3.87,6.43,9.23,3.8,16.88
				c-2.12,6.17-0.38,12.48,0.38,12.51c0.73,0.03-0.04-5.73,3.46-11.78C12.05,9.94,20.11,7.25,21.02,6.96
				C26.91,5.09,31.69,6.28,31.77,5.61z"/>
			<path class="st11" d="M20.44,4.07c1.43-0.17,4.25,0.28,3.21,0.7c-1.05,0.42-4.63,1.22-9.89,4.46c-1.81,1.12-3.21-0.21-2.37-1.11
				C12.22,7.21,16.33,4.56,20.44,4.07z"/>
			<path class="st11" d="M9.22,9.91c0.51-0.42,2.57,0.2,2.23,0.49c-3.07,2.58-4.95,4.95-6.62,8.64C3.16,22.73,4.2,14.09,9.22,9.91z"
				/>
		</g>
	</g>
</g>
<g id="Layer_3" class="st0">
	<g class="st1">
		<circle class="st18" cx="25.45" cy="25.01" r="24"/>
		<g>
			<path class="st19" d="M1.44,25.01c0,0.53,0.02,1.05,0.05,1.56c0.05,0.86,0.16,1.72,0.3,2.55c0.35,2.02,0.95,3.95,1.77,5.76
				c0.53,1.18,1.16,2.31,1.86,3.38c1.44,2.18,3.23,4.11,5.29,5.71c0.53,0.3,1.07,0.59,1.61,0.86c1.17,0.56,2.38,1.04,3.62,1.43
				c1.24,0.38,2.52,0.66,3.8,0.86c2.58,0.35,5.18,0.39,7.84-0.11c2.64-0.48,5.18-1.5,7.44-2.95c2.26-1.45,4.25-3.33,5.82-5.51
				c1.57-2.18,2.72-4.68,3.36-7.3c0.32-1.31,0.51-2.65,0.58-4c0.03-0.67,0.04-1.35,0-2.02c0-0.33-0.04-0.68-0.08-1.03l-0.12-1.04
				c-0.44-2.75-1.58-5.39-3.22-7.63c-0.1-0.14-0.2-0.29-0.31-0.42l-0.34-0.4l-0.68-0.79c-0.24-0.25-0.5-0.49-0.75-0.73
				c-0.25-0.24-0.49-0.49-0.77-0.7c-0.55-0.43-1.08-0.88-1.68-1.24c-0.29-0.19-0.58-0.39-0.88-0.56l-0.93-0.48l-0.46-0.23
				c-0.16-0.07-0.32-0.13-0.48-0.2l-0.97-0.38c-0.32-0.13-0.66-0.21-1-0.31c-0.34-0.09-0.67-0.21-1.01-0.27L30.1,8.67l-0.52-0.09
				l-0.52-0.04l-1.04-0.08c-0.17-0.02-0.35-0.01-0.52-0.01l-0.52,0.01c-0.35,0.01-0.69,0.01-1.04,0.04l-1.07,0.13
				c-0.36,0.03-0.71,0.13-1.06,0.2c-0.35,0.08-0.71,0.15-1.04,0.28l-1.02,0.35l-0.99,0.44c-0.33,0.14-0.64,0.33-0.95,0.51
				c-0.31,0.18-0.62,0.36-0.91,0.57c-1.2,0.79-2.24,1.8-3.14,2.91c-0.21,0.29-0.45,0.56-0.64,0.86l-0.57,0.9
				c-0.18,0.31-0.33,0.63-0.5,0.95c-0.08,0.16-0.16,0.32-0.23,0.48l-0.2,0.5l-0.19,0.5l-0.09,0.25l-0.08,0.26l-0.29,1.03
				c-0.08,0.35-0.13,0.7-0.2,1.05c-0.07,0.35-0.09,0.7-0.12,1.06l-0.04,0.53l-0.02,0.27l0.01,0.26l0.03,1.06
				c0.06,0.72,0.16,1.46,0.35,2.18c0.73,2.87,2.56,5.42,5.01,7.01c1.22,0.8,2.6,1.37,4.02,1.66c0.36,0.06,0.72,0.13,1.08,0.17
				l1.08,0.08l1.08-0.04c0.37-0.03,0.75-0.09,1.12-0.14c1.49-0.28,2.91-0.91,4.1-1.82c1.2-0.9,2.16-2.1,2.81-3.43
				c0.66-1.33,1.01-2.82,0.98-4.29c-0.01-0.72-0.09-1.51-0.31-2.24c-0.22-0.74-0.53-1.45-0.95-2.09c-0.42-0.64-0.91-1.23-1.49-1.72
				c-0.58-0.49-1.21-0.91-1.9-1.22c-0.69-0.3-1.42-0.53-2.16-0.62c-0.18-0.04-0.37-0.04-0.56-0.05c-0.19-0.01-0.37-0.03-0.56-0.01
				l-0.56,0.02c-0.19,0.02-0.39,0.05-0.58,0.08c-1.55,0.27-2.97,1.12-3.91,2.32c-0.97,1.19-1.46,2.75-1.37,4.25
				c0.03,0.76,0.25,1.56,0.62,2.25c0.38,0.69,0.91,1.29,1.53,1.74c0.62,0.46,1.35,0.76,2.11,0.89c0.19,0.03,0.38,0.06,0.57,0.07
				c0.19,0.02,0.38,0.01,0.57,0c0.38-0.01,0.79-0.09,1.16-0.22c0.76-0.25,1.42-0.73,1.91-1.34c0.25-0.3,0.44-0.64,0.59-1
				c0.14-0.36,0.24-0.73,0.29-1.11c0.01-0.19,0.04-0.38,0.02-0.57l-0.02-0.29l-0.04-0.29c-0.08-0.39-0.22-0.77-0.43-1.11
				c-0.41-0.67-1.05-1.19-1.79-1.43c-0.37-0.12-0.75-0.17-1.13-0.16c-0.38,0.01-0.79,0.1-1.14,0.28c-0.71,0.35-1.24,1.02-1.41,1.76
				c-0.04,0.19-0.06,0.38-0.06,0.57c0,0.09,0.01,0.19,0.01,0.28c0.02,0.1,0.02,0.2,0.05,0.29c0.09,0.39,0.3,0.74,0.57,1.01
				c0.28,0.27,0.63,0.46,1,0.55c0.18,0.04,0.38,0.06,0.56,0.05c0.19-0.01,0.39-0.05,0.57-0.12c0.36-0.15,0.67-0.42,0.84-0.76
				c0.18-0.34,0.24-0.72,0.16-1.09c-0.08-0.38-0.33-0.7-0.66-0.88c-0.33-0.17-0.72-0.2-1.07-0.05c-0.34,0.16-0.57,0.5-0.58,0.86
				c-0.01,0.17,0.03,0.36,0.13,0.51c0.1,0.15,0.25,0.26,0.41,0.32c0.16,0.05,0.34,0.05,0.5-0.02c0.16-0.07,0.28-0.21,0.32-0.36
				c0.05-0.15,0.03-0.33-0.06-0.46c-0.09-0.13-0.26-0.19-0.4-0.17c0.15,0,0.28,0.08,0.35,0.2c0.07,0.12,0.06,0.27,0,0.38
				c-0.05,0.12-0.16,0.21-0.27,0.24c-0.12,0.03-0.25,0.01-0.36-0.04c-0.22-0.1-0.34-0.35-0.29-0.57c0.04-0.23,0.21-0.42,0.41-0.48
				c0.2-0.06,0.45-0.01,0.62,0.11c0.18,0.13,0.29,0.32,0.3,0.52c0.02,0.21-0.05,0.43-0.17,0.6c-0.12,0.17-0.3,0.29-0.49,0.33
				c-0.18,0.05-0.4,0.03-0.59-0.03c-0.19-0.07-0.36-0.19-0.49-0.34c-0.12-0.16-0.2-0.34-0.22-0.53c-0.01-0.05,0-0.09-0.01-0.14
				l0.01-0.16c0.02-0.1,0.04-0.2,0.07-0.3c0.14-0.38,0.44-0.69,0.8-0.81c0.18-0.07,0.36-0.09,0.57-0.07
				c0.21,0.02,0.4,0.07,0.59,0.15c0.37,0.16,0.66,0.46,0.81,0.81c0.08,0.17,0.13,0.35,0.15,0.54l0.01,0.14l-0.01,0.15
				c0,0.1-0.03,0.2-0.04,0.3c-0.16,0.8-0.81,1.44-1.55,1.59c-0.19,0.04-0.36,0.06-0.57,0.05l-0.15-0.01
				c-0.05-0.01-0.1-0.02-0.15-0.02c-0.1-0.01-0.2-0.04-0.3-0.06c-0.39-0.1-0.76-0.29-1.05-0.56c-0.3-0.26-0.54-0.58-0.69-0.94
				c-0.15-0.36-0.21-0.72-0.2-1.13c0.02-0.84,0.35-1.64,0.91-2.23c0.55-0.59,1.3-0.95,2.07-1.03c0.1,0,0.19-0.02,0.29-0.02
				l0.32,0.01c0.11,0,0.21,0.02,0.32,0.03c0.1,0.02,0.21,0.02,0.31,0.05c0.41,0.07,0.8,0.23,1.17,0.42c0.37,0.19,0.7,0.45,1,0.73
				c0.3,0.29,0.53,0.63,0.74,0.97c0.2,0.35,0.32,0.74,0.42,1.13c0.08,0.39,0.1,0.78,0.08,1.23c-0.03,0.87-0.28,1.71-0.7,2.45
				c-0.42,0.74-1,1.39-1.7,1.85c-0.7,0.47-1.48,0.78-2.3,0.9c-0.21,0.01-0.41,0.04-0.63,0.05c-0.22-0.01-0.45-0.01-0.67-0.01
				c-0.22-0.03-0.44-0.06-0.66-0.08c-0.22-0.04-0.43-0.09-0.65-0.14c-0.86-0.22-1.67-0.6-2.38-1.11c-1.43-1.02-2.46-2.56-2.82-4.24
				c-0.1-0.42-0.14-0.84-0.16-1.29l0.01-0.69l0-0.17l0.02-0.17l0.04-0.34c0.02-0.23,0.04-0.46,0.1-0.68
				c0.05-0.22,0.09-0.45,0.14-0.67l0.2-0.65l0.05-0.16l0.07-0.16l0.13-0.31l0.13-0.32c0.05-0.1,0.11-0.2,0.16-0.3
				c0.11-0.2,0.21-0.41,0.33-0.6l0.38-0.57c0.12-0.19,0.29-0.35,0.42-0.53c0.59-0.69,1.26-1.32,2.03-1.79
				c0.18-0.14,0.39-0.23,0.58-0.34c0.2-0.1,0.39-0.23,0.6-0.3c0.21-0.09,0.41-0.18,0.62-0.27l0.64-0.2
				c0.21-0.08,0.43-0.11,0.65-0.16c0.22-0.04,0.44-0.11,0.66-0.12l0.67-0.08c0.23-0.01,0.47,0,0.71-0.01l0.36-0.01
				c0.12,0,0.24-0.01,0.36,0.01l0.71,0.07l0.36,0.03l0.35,0.07l0.7,0.14c0.23,0.04,0.45,0.14,0.68,0.2
				c0.22,0.07,0.46,0.12,0.68,0.22l0.66,0.27c0.11,0.05,0.22,0.09,0.33,0.13l0.31,0.17c0.21,0.11,0.42,0.22,0.63,0.33
				c0.2,0.12,0.4,0.26,0.6,0.39c0.41,0.24,0.77,0.56,1.14,0.85c0.19,0.14,0.35,0.32,0.53,0.48l0.51,0.49l0.46,0.54l0.23,0.27
				c0.08,0.09,0.14,0.19,0.21,0.29c1.11,1.54,1.87,3.31,2.17,5.18l0.08,0.71c0.03,0.23,0.06,0.47,0.06,0.72
				c0.03,0.5,0.02,0.99,0.01,1.49c-0.04,0.99-0.18,1.97-0.41,2.94c-0.46,1.93-1.3,3.76-2.44,5.39c-1.14,1.63-2.59,3.05-4.25,4.14
				c-1.66,1.1-3.53,1.87-5.49,2.29c-1.93,0.42-4.07,0.45-6.12,0.22c-1.03-0.13-2.05-0.33-3.05-0.6c-1-0.28-1.99-0.63-2.94-1.05
				c-3.81-1.7-7.13-4.58-9.34-8.18c-0.55-0.9-1.05-1.84-1.46-2.82c-0.41-0.98-0.76-1.98-1.03-3.02c-0.26-1.03-0.46-2.09-0.56-3.15
				c-0.05-0.54-0.08-1.09-0.12-1.63L1.93,20.7c-0.01-0.15-0.01-0.3-0.01-0.45c-0.01,0.06-0.02,0.12-0.03,0.18
				C1.6,21.91,1.44,23.45,1.44,25.01z"/>
			<g>
				<path class="st20" d="M36.44,3.66c1.78,0.92,3.42,2.04,4.9,3.35c2.24,1.98,4.1,4.37,5.47,7.02c1.49,2.89,2.41,6.11,2.61,9.48
					c0.08,1.36,0.05,2.74-0.1,4.13c-0.18,1.63-0.52,3.2-1,4.7c-1.03,3.21-2.7,6.11-4.86,8.55c-1.98,2.24-4.37,4.1-7.02,5.47
					c-2.89,1.49-6.11,2.41-9.48,2.61c-1.36,0.08-2.74,0.05-4.13-0.1c-1.63-0.18-3.2-0.52-4.7-1c-3.21-1.03-6.11-2.7-8.55-4.86
					c-0.61-0.54-1.19-1.11-1.74-1.71c7.99,4.29,22.51,7.35,31.7-5.69C48.71,22.57,41.99,9.98,36.44,3.66z"/>
				<path class="st21" d="M16.21,46.72c1.5,0.48,3.08,0.82,4.7,1c1.39,0.15,2.78,0.18,4.13,0.1c3.37-0.21,6.59-1.12,9.48-2.61
					c2.66-1.37,5.04-3.23,7.02-5.47c2.16-2.44,3.83-5.33,4.86-8.55c0.48-1.5,0.82-3.08,1-4.7c0.15-1.39,0.18-2.78,0.1-4.13
					c-0.21-3.37-1.12-6.59-2.61-9.48c-1.37-2.66-3.23-5.04-5.47-7.02c-0.78-0.69-1.61-1.32-2.47-1.91C38.54,4.8,40,5.83,41.34,7
					c2.24,1.98,4.1,4.37,5.47,7.02c1.49,2.89,2.41,6.11,2.61,9.48c0.08,1.36,0.05,2.74-0.1,4.13c-0.18,1.63-0.52,3.2-1,4.7
					c-1.03,3.21-2.7,6.11-4.86,8.55c-1.98,2.24-4.37,4.1-7.02,5.47c-2.89,1.49-6.11,2.41-9.48,2.61c-1.36,0.08-2.74,0.05-4.13-0.1
					c-1.63-0.18-3.2-0.52-4.7-1c-2.19-0.7-4.23-1.7-6.08-2.95C13.36,45.65,14.75,46.25,16.21,46.72z"/>
			</g>
			<g>
				<path class="st9" d="M13.33,34.61c3.54,0.22,4.49-3.26,13.89-11.85c8.22-7.51,11.37-8.41,11.29-11.48
					c-0.12-4.73-7.79-9.35-14.63-9.63C14.22,1.27,3.59,9.48,3.34,19.43C3.16,26.46,8.17,34.29,13.33,34.61z"/>
				<path class="st16" d="M23.89,3.32c5.52-0.06,11.52,2.6,11.2,4.55c-0.19,1.14-7.49,0.45-16.32,8.73
					c-9.11,8.54-7.79,17.1-9.11,17.27c-1.52,0.19-6.52-7.23-5.69-14.04C5.12,10.28,15.15,3.41,23.89,3.32z"/>
				<path class="st22" d="M4.9,18.04C7.85,9.6,16,3.63,25.45,3.66c2.78,0.01,9.19,1.93,3.83,1.91C18.94,5.53,10.23,11.8,6.07,20.59
					C4.98,22.9,4.06,20.45,4.9,18.04z"/>
				<path class="st11" d="M20.83,4.51c1.29-0.15,3.86,0.25,2.91,0.63c-0.95,0.38-4.2,1.11-8.98,4.05C13.11,10.2,11.85,9,12.61,8.18
					C13.36,7.36,17.1,4.96,20.83,4.51z"/>
				<path class="st11" d="M10.64,9.81c0.46-0.38,2.33,0.18,2.02,0.44c-2.78,2.34-4.49,4.49-6.01,7.84
					C5.14,21.45,6.09,13.6,10.64,9.81z"/>
			</g>
		</g>
	</g>
</g>
<g id="Layer_4" class="st0">
	<g class="st1">
		<path class="st23" d="M0.73,24.65c0,1.39,0.12,2.75,0.35,4.07c0.57,3.3,1.82,6.36,3.6,9.05c1.64,2.47,3.72,4.61,6.14,6.32
			c2.64,1.86,5.66,3.19,8.94,3.85c1.53,0.31,3.12,0.47,4.74,0.47c1.39,0,2.75-0.12,4.07-0.35c3.3-0.57,6.36-1.82,9.05-3.6
			c2.47-1.64,4.61-3.72,6.32-6.14c1.86-2.64,3.19-5.66,3.85-8.94c0.31-1.53,0.47-3.12,0.47-4.74c0-1.39-0.12-2.75-0.35-4.07
			c-0.57-3.3-1.82-6.36-3.6-9.05c-1.64-2.47-3.72-4.61-6.14-6.32c-2.64-1.86-5.66-3.19-8.94-3.85c-1.53-0.31-3.12-0.47-4.74-0.47
			c-1.39,0-2.75,0.12-4.07,0.35c-3.3,0.57-6.36,1.82-9.05,3.6c-2.47,1.64-4.61,3.72-6.32,6.14c-1.86,2.64-3.19,5.66-3.85,8.94
			C0.89,21.45,0.73,23.03,0.73,24.65z"/>
		<g>
			<g>
				<g>
					<g>
						<path class="st24" d="M22.06,22.62c0.74,0.74,1.53,1.39,2.36,1.96c-4.39-6.41-3.74-15.24,1.96-20.94
							c0.88-0.88,1.84-1.64,2.85-2.28c-1.53-0.31-3.12-0.47-4.74-0.47c-1.39,0-2.75,0.12-4.07,0.35
							C15.69,7.69,16.23,16.79,22.06,22.62z"/>
					</g>
					<g>
						<path class="st24" d="M24.21,21.5c0,1.04,0.1,2.06,0.28,3.06c1.43-7.64,8.14-13.42,16.19-13.42c1.25,0,2.46,0.14,3.63,0.4
							c-1.64-2.47-3.72-4.61-6.14-6.32C30.27,6.43,24.21,13.26,24.21,21.5z"/>
					</g>
					<g>
						<path class="st24" d="M24.57,24.58c6.41-4.39,15.24-3.74,20.94,1.96c0.88,0.88,1.64,1.84,2.28,2.85
							c0.31-1.53,0.47-3.12,0.47-4.74c0-1.39-0.12-2.75-0.35-4.07c-6.45-4.73-15.55-4.19-21.38,1.64
							C25.79,22.96,25.14,23.75,24.57,24.58z"/>
					</g>
					<g>
						<path class="st24" d="M38.02,40.84c0,1.25-0.14,2.46-0.4,3.63c2.47-1.64,4.61-3.72,6.32-6.14
							c-1.21-7.9-8.04-13.96-16.28-13.96c-1.04,0-2.06,0.1-3.05,0.28C32.24,26.09,38.02,32.79,38.02,40.84z"/>
					</g>
					<g>
						<path class="st24" d="M19.76,47.95c1.53,0.31,3.12,0.47,4.74,0.47c1.39,0,2.75-0.12,4.07-0.35
							c4.73-6.45,4.19-15.55-1.64-21.38c-0.74-0.74-1.53-1.39-2.36-1.96c4.39,6.41,3.74,15.24-1.96,20.94
							C21.73,46.54,20.77,47.31,19.76,47.95z"/>
					</g>
					<g>
						<path class="st24" d="M4.68,37.78c1.64,2.47,3.72,4.61,6.14,6.32c7.9-1.21,13.96-8.04,13.96-16.28c0-1.04-0.1-2.06-0.28-3.06
							c-1.43,7.64-8.14,13.42-16.19,13.42C7.06,38.18,5.85,38.04,4.68,37.78z"/>
					</g>
					<g>
						<path class="st24" d="M0.73,24.65c0,1.39,0.12,2.75,0.35,4.07c6.45,4.73,15.55,4.19,21.38-1.64c0.74-0.74,1.39-1.53,1.96-2.36
							c-6.41,4.39-15.24,3.74-20.94-1.96c-0.88-0.88-1.64-1.84-2.28-2.85C0.89,21.45,0.73,23.03,0.73,24.65z"/>
					</g>
					<g>
						<path class="st24" d="M5.06,10.98c1.21,7.9,8.04,13.96,16.28,13.96c1.04,0,2.06-0.1,3.05-0.28
							c-7.64-1.43-13.42-8.14-13.42-16.19c0-1.25,0.14-2.46,0.4-3.63C8.91,6.48,6.76,8.56,5.06,10.98z"/>
					</g>
				</g>
			</g>
			<path class="st24" d="M20.09,24.65c0,2.43,1.97,4.41,4.41,4.41c2.43,0,4.41-1.97,4.41-4.41s-1.97-4.41-4.41-4.41
				C22.06,20.25,20.09,22.22,20.09,24.65z"/>
		</g>
		<path class="st23" d="M22.09,24.65c0,1.33,1.08,2.4,2.4,2.4c1.33,0,2.4-1.08,2.4-2.4s-1.08-2.4-2.4-2.4
			C23.17,22.25,22.09,23.33,22.09,24.65z"/>
		
			<radialGradient id="SVGID_1_" cx="341.416" cy="42.611" r="0" gradientTransform="matrix(-1 0 0 1 381.4746 0)" gradientUnits="userSpaceOnUse">
			<stop  offset="0.7405" style="stop-color:#FFFFFF;stop-opacity:0"/>
			<stop  offset="1" style="stop-color:#B4B4B4"/>
		</radialGradient>
		<path class="st25" d="M40.06,42.61"/>
		<path class="st26" d="M32.99,2.45c1.85,0.71,3.59,1.64,5.18,2.76c2.42,1.71,4.5,3.85,6.14,6.32c1.78,2.68,3.03,5.75,3.6,9.05
			c0.23,1.32,0.35,2.69,0.35,4.07c0,1.62-0.16,3.21-0.47,4.74c-0.66,3.27-2,6.3-3.85,8.94c-1.71,2.42-3.85,4.5-6.32,6.14
			c-2.68,1.78-5.75,3.03-9.05,3.6c-1.32,0.23-2.69,0.35-4.07,0.35c-1.62,0-3.21-0.16-4.74-0.47c-3.27-0.66-6.3-2-8.94-3.85
			c-0.66-0.46-1.29-0.96-1.9-1.49C41.31,50.3,53.25,21.65,32.99,2.45z"/>
		<path class="st27" d="M17.76,47.01c1.53,0.31,3.12,0.47,4.74,0.47c1.39,0,2.75-0.12,4.07-0.35c3.3-0.57,6.36-1.82,9.05-3.6
			c2.47-1.64,4.61-3.72,6.32-6.14c1.86-2.64,3.19-5.66,3.85-8.94c0.31-1.53,0.47-3.12,0.47-4.74c0-1.39-0.12-2.75-0.35-4.07
			c-0.57-3.3-1.82-6.36-3.6-9.05c-1.64-2.47-3.72-4.61-6.14-6.32c-0.84-0.59-1.72-1.13-2.64-1.61c1.65,0.68,3.2,1.53,4.64,2.54
			c2.42,1.71,4.5,3.85,6.14,6.32c1.78,2.68,3.03,5.75,3.6,9.05c0.23,1.32,0.35,2.69,0.35,4.07c0,1.62-0.16,3.21-0.47,4.74
			c-0.66,3.27-2,6.3-3.85,8.94c-1.71,2.42-3.85,4.5-6.32,6.14c-2.68,1.78-5.75,3.03-9.05,3.6c-1.32,0.23-2.69,0.35-4.07,0.35
			c-1.62,0-3.21-0.16-4.74-0.47c-2.23-0.45-4.34-1.21-6.3-2.24C14.83,46.27,16.27,46.71,17.76,47.01z"/>
		<path class="st28" d="M29.3,4.9"/>
		<path class="st26" d="M12.48,24.65c0,6.64,5.38,12.02,12.02,12.02c6.64,0,12.02-5.38,12.02-12.02c0-6.64-5.38-12.02-12.02-12.02
			C17.86,12.64,12.48,18.02,12.48,24.65z"/>
		<path class="st29" d="M16.71,24.65c0,4.3,3.49,7.78,7.78,7.78s7.78-3.49,7.78-7.78s-3.48-7.78-7.78-7.78S16.71,20.36,16.71,24.65z
			"/>
		<path class="st9" d="M8.55,36.57c3.5,0.21,1.86-14.74,9.09-20.75s19.86-2.85,19.78-5.89c-0.12-4.68-7.71-7.13-14.48-7.4
			C13.38,2.14,2.85,10.26,2.61,20.11C2.43,27.08,3.44,36.26,8.55,36.57z"/>
		<path class="st16" d="M22.72,2.67c5.46-0.06,11.4,2.58,11.08,4.51c-0.19,1.13-10.33-2.64-19.07,5.56
			c-9.01,8.45-4.79,20.01-6.1,20.17C7.13,33.1,2.18,25.75,3,19.01C4.14,9.57,14.07,2.76,22.72,2.67z"/>
		<path class="st17" d="M29.73,5.26c0.07-0.61-4.24-2.41-8.97-2.06C14.02,3.69,6.97,8.51,4.6,15.38C2.7,20.92,4.26,26.59,4.94,26.62
			c0.65,0.02-0.03-5.14,3.11-10.59c3.97-6.88,11.21-9.3,12.03-9.56C25.37,4.79,29.66,5.86,29.73,5.26z"/>
		<path class="st11" d="M19.55,3.88c1.28-0.15,3.82,0.25,2.88,0.63c-0.94,0.38-4.16,1.09-8.89,4.01c-1.63,1-2.88-0.19-2.13-1
			C12.17,6.7,15.86,4.32,19.55,3.88z"/>
		<path class="st11" d="M9.48,9.12c0.45-0.38,2.31,0.18,2,0.44C8.72,11.87,7.03,14,5.53,17.32C4.03,20.64,4.97,12.88,9.48,9.12z"/>
	</g>
</g>
<g id="Layer_5">
	<g>
		<path class="st18" d="M0.5,21.4c0,1.33,0.27,2.68,0.85,3.95c0.48,1.07,1.18,2.09,2.12,3c0.09,0.09,0.18,0.18,0.26,0.27
			c1.74,1.83,2.69,4.24,2.69,6.74c0,0.54-0.04,1.08-0.14,1.62c0,0.01,0,0.02,0,0.03c-0.1,0.59-0.15,1.16-0.15,1.72
			c0,0.98,0.15,1.91,0.41,2.79c1.22,4,4.97,6.83,9.12,6.93c0,0,0,0,0,0c1.47,0.04,2.99-0.27,4.46-0.98
			c0.11-0.05,0.22-0.11,0.33-0.17c1.42-0.75,2.99-1.12,4.55-1.12c1.56,0,3.13,0.37,4.55,1.12c0.11,0.06,0.22,0.11,0.33,0.17
			c1.39,0.67,2.83,0.98,4.22,0.98c0.08,0,0.16,0,0.24,0c0,0,0,0,0,0c4.16-0.11,7.91-2.93,9.13-6.93c0.42-1.39,0.54-2.91,0.27-4.51
			c0-0.01,0-0.02,0-0.03c-0.09-0.54-0.14-1.08-0.14-1.62c0-2.49,0.95-4.91,2.69-6.74c0.09-0.09,0.17-0.18,0.26-0.27
			c0.93-0.91,1.63-1.93,2.12-3c0.57-1.27,0.85-2.61,0.85-3.95c0-3.63-2.01-7.16-5.46-8.84c-0.88-0.43-1.86-0.74-2.92-0.89
			c-0.38-0.06-0.76-0.13-1.13-0.23l0,0c-1.16-0.31-2.25-0.83-3.21-1.53c-0.91-0.66-1.7-1.48-2.34-2.42h0
			c-0.25-0.37-0.48-0.76-0.68-1.16c-0.41-0.84-0.92-1.58-1.49-2.22h0c-1.91-2.15-4.59-3.23-7.28-3.23c-2.68,0-5.37,1.08-7.28,3.23h0
			c-0.57,0.65-1.07,1.39-1.49,2.22c-0.2,0.41-0.43,0.8-0.68,1.16h0c-1.31,1.94-3.28,3.34-5.55,3.95l0,0
			c-0.37,0.1-0.75,0.18-1.13,0.23c-1.06,0.16-2.04,0.46-2.93,0.89C2.51,14.24,0.5,17.78,0.5,21.4z"/>
		<path class="st18" d="M0.5,21.4c0,1.33,0.27,2.68,0.85,3.95c0.48,1.07,1.18,2.09,2.12,3c0.09,0.09,0.18,0.18,0.26,0.27
			c1.74,1.83,2.69,4.24,2.69,6.74c0,0.54-0.04,1.08-0.14,1.62c0,0.01,0,0.02,0,0.03c-0.1,0.59-0.15,1.16-0.15,1.72
			c0,0.98,0.15,1.91,0.41,2.79c1.22,4,4.97,6.83,9.12,6.93c0,0,0,0,0,0c1.47,0.04,2.99-0.27,4.46-0.98
			c0.11-0.05,0.22-0.11,0.33-0.17c1.42-0.75,2.99-1.12,4.55-1.12c1.56,0,3.13,0.37,4.55,1.12c0.11,0.06,0.22,0.11,0.33,0.17
			c1.39,0.67,2.83,0.98,4.22,0.98c0.08,0,0.16,0,0.24,0c0,0,0,0,0,0c4.16-0.11,7.91-2.93,9.13-6.93c0.42-1.39,0.54-2.91,0.27-4.51
			c0-0.01,0-0.02,0-0.03c-0.09-0.54-0.14-1.08-0.14-1.62c0-2.49,0.95-4.91,2.69-6.74c0.09-0.09,0.17-0.18,0.26-0.27
			c0.93-0.91,1.63-1.93,2.12-3c0.57-1.27,0.85-2.61,0.85-3.95c0-3.63-2.01-7.16-5.46-8.84c-0.88-0.43-1.86-0.74-2.92-0.89
			c-0.38-0.06-0.76-0.13-1.13-0.23l0,0c-1.16-0.31-2.25-0.83-3.21-1.53c-0.91-0.66-1.7-1.48-2.34-2.42h0
			c-0.25-0.37-0.48-0.76-0.68-1.16c-0.41-0.84-0.92-1.58-1.49-2.22h0c-1.91-2.15-4.59-3.23-7.28-3.23c-2.68,0-5.37,1.08-7.28,3.23h0
			c-0.57,0.65-1.07,1.39-1.49,2.22c-0.2,0.41-0.43,0.8-0.68,1.16h0c-1.31,1.94-3.28,3.34-5.55,3.95l0,0
			c-0.37,0.1-0.75,0.18-1.13,0.23c-1.06,0.16-2.04,0.46-2.93,0.89C2.51,14.24,0.5,17.78,0.5,21.4z"/>
		<path class="st18" d="M0.5,21.4c0,1.33,0.27,2.68,0.85,3.95c0.48,1.07,1.18,2.09,2.12,3c0.09,0.09,0.18,0.18,0.26,0.27
			c1.74,1.83,2.69,4.24,2.69,6.74c0,0.54-0.04,1.08-0.14,1.62c0,0.01,0,0.02,0,0.03c-0.1,0.59-0.15,1.16-0.15,1.72
			c0,0.98,0.15,1.91,0.41,2.79c1.22,4,4.97,6.83,9.12,6.93c0,0,0,0,0,0c1.47,0.04,2.99-0.27,4.46-0.98
			c0.11-0.05,0.22-0.11,0.33-0.17c1.42-0.75,2.99-1.12,4.55-1.12c1.56,0,3.13,0.37,4.55,1.12c0.11,0.06,0.22,0.11,0.33,0.17
			c1.39,0.67,2.83,0.98,4.22,0.98c0.08,0,0.16,0,0.24,0c0,0,0,0,0,0c4.16-0.11,7.91-2.93,9.13-6.93c0.42-1.39,0.54-2.91,0.27-4.51
			c0-0.01,0-0.02,0-0.03c-0.09-0.54-0.14-1.08-0.14-1.62c0-2.49,0.95-4.91,2.69-6.74c0.09-0.09,0.17-0.18,0.26-0.27
			c0.93-0.91,1.63-1.93,2.12-3c0.57-1.27,0.85-2.61,0.85-3.95c0-3.63-2.01-7.16-5.46-8.84c-0.88-0.43-1.86-0.74-2.92-0.89
			c-0.38-0.06-0.76-0.13-1.13-0.23l0,0c-1.16-0.31-2.25-0.83-3.21-1.53c-0.91-0.66-1.7-1.48-2.34-2.42h0
			c-0.25-0.37-0.48-0.76-0.68-1.16c-0.41-0.84-0.92-1.58-1.49-2.22h0c-1.91-2.15-4.59-3.23-7.28-3.23c-2.68,0-5.37,1.08-7.28,3.23h0
			c-0.57,0.65-1.07,1.39-1.49,2.22c-0.2,0.41-0.43,0.8-0.68,1.16h0c-1.31,1.94-3.28,3.34-5.55,3.95l0,0
			c-0.37,0.1-0.75,0.18-1.13,0.23c-1.06,0.16-2.04,0.46-2.93,0.89C2.51,14.24,0.5,17.78,0.5,21.4z"/>
		<g>
			<defs>
				<path id="SVGID_00000043448951587754060920000015458048107329227908_" d="M0.5,21.4c0,1.33,0.27,2.68,0.85,3.95
					c0.48,1.07,1.18,2.09,2.12,3c0.09,0.09,0.18,0.18,0.26,0.27c1.74,1.83,2.69,4.24,2.69,6.74c0,0.54-0.04,1.08-0.14,1.62
					c0,0.01,0,0.02,0,0.03c-0.1,0.59-0.15,1.16-0.15,1.72c0,0.98,0.15,1.91,0.41,2.79c1.22,4,4.97,6.83,9.12,6.93c0,0,0,0,0,0
					c1.47,0.04,2.99-0.27,4.46-0.98c0.11-0.05,0.22-0.11,0.33-0.17c1.42-0.75,2.99-1.12,4.55-1.12c1.56,0,3.13,0.37,4.55,1.12
					c0.11,0.06,0.22,0.11,0.33,0.17c1.39,0.67,2.83,0.98,4.22,0.98c0.08,0,0.16,0,0.24,0c0,0,0,0,0,0c4.16-0.11,7.91-2.93,9.13-6.93
					c0.42-1.39,0.54-2.91,0.27-4.51c0-0.01,0-0.02,0-0.03c-0.09-0.54-0.14-1.08-0.14-1.62c0-2.49,0.95-4.91,2.69-6.74
					c0.09-0.09,0.17-0.18,0.26-0.27c0.93-0.91,1.63-1.93,2.12-3c0.57-1.27,0.85-2.61,0.85-3.95c0-3.63-2.01-7.16-5.46-8.84
					c-0.88-0.43-1.86-0.74-2.92-0.89c-0.38-0.06-0.76-0.13-1.13-0.23l0,0c-1.16-0.31-2.25-0.83-3.21-1.53
					c-0.91-0.66-1.7-1.48-2.34-2.42h0c-0.25-0.37-0.48-0.76-0.68-1.16c-0.41-0.84-0.92-1.58-1.49-2.22h0
					c-1.91-2.15-4.59-3.23-7.28-3.23c-2.68,0-5.37,1.08-7.28,3.23h0c-0.57,0.65-1.07,1.39-1.49,2.22c-0.2,0.41-0.43,0.8-0.68,1.16h0
					c-1.31,1.94-3.28,3.34-5.55,3.95l0,0c-0.37,0.1-0.75,0.18-1.13,0.23c-1.06,0.16-2.04,0.46-2.93,0.89
					C2.51,14.24,0.5,17.78,0.5,21.4z"/>
			</defs>
			<clipPath id="SVGID_00000175307892164667973420000012543920759686215359_">
				<use xlink:href="#SVGID_00000043448951587754060920000015458048107329227908_"  style="overflow:visible;"/>
			</clipPath>
			<path style="clip-path:url(#SVGID_00000175307892164667973420000012543920759686215359_);fill:#E07A26;" d="M0.5,21.4
				c0,1.33,0.27,2.68,0.85,3.95c0.48,1.07,1.18,2.09,2.12,3c0.09,0.09,0.18,0.18,0.26,0.27c1.74,1.83,2.69,4.24,2.69,6.74
				c0,0.54-0.04,1.08-0.14,1.62c0,0.01,0,0.02,0,0.03c-0.1,0.59-0.15,1.16-0.15,1.72c0,0.98,0.15,1.91,0.41,2.79
				c1.22,4,4.97,6.83,9.12,6.93c0,0,0,0,0,0c1.47,0.04,2.99-0.27,4.46-0.98c0.11-0.05,0.22-0.11,0.33-0.17
				c1.42-0.75,2.99-1.12,4.55-1.12c1.56,0,3.13,0.37,4.55,1.12c0.11,0.06,0.22,0.11,0.33,0.17c1.39,0.67,2.83,0.98,4.22,0.98
				c0.08,0,0.16,0,0.24,0c0,0,0,0,0,0c4.16-0.11,7.91-2.93,9.13-6.93c0.42-1.39,0.54-2.91,0.27-4.51c0-0.01,0-0.02,0-0.03
				c-0.09-0.54-0.14-1.08-0.14-1.62c0-2.49,0.95-4.91,2.69-6.74c0.09-0.09,0.17-0.18,0.26-0.27c0.93-0.91,1.63-1.93,2.12-3
				c0.57-1.27,0.85-2.61,0.85-3.95c0-3.63-2.01-7.16-5.46-8.84c-0.88-0.43-1.86-0.74-2.92-0.89c-0.38-0.06-0.76-0.13-1.13-0.23l0,0
				c-1.16-0.31-2.25-0.83-3.21-1.53c-0.91-0.66-1.7-1.48-2.34-2.42h0c-0.25-0.37-0.48-0.76-0.68-1.16
				c-0.41-0.84-0.92-1.58-1.49-2.22h0c-1.91-2.15-4.59-3.23-7.28-3.23c-2.68,0-5.37,1.08-7.28,3.23h0
				c-0.57,0.65-1.07,1.39-1.49,2.22c-0.2,0.41-0.43,0.8-0.68,1.16h0c-1.31,1.94-3.28,3.34-5.55,3.95l0,0
				c-0.37,0.1-0.75,0.18-1.13,0.23c-1.06,0.16-2.04,0.46-2.93,0.89C2.51,14.24,0.5,17.78,0.5,21.4z"/>
			<path style="opacity:0.2;clip-path:url(#SVGID_00000175307892164667973420000012543920759686215359_);fill:#FFFFFF;" d="
				M2.2,21.01c0.27-5.91,7.11-6.27,12.32-9.94c3.38-2.38,4.31-6.78,6.75-8.11c6.2-3.37,11.29,0.54,10.28,6.81
				c-1.11,6.9-12.91,25.49-20.08,23.15C9.1,32.14,1.89,27.7,2.2,21.01z"/>
			<path style="opacity:0.22;clip-path:url(#SVGID_00000175307892164667973420000012543920759686215359_);fill:#FFFFFF;" d="
				M2.89,20.68c0.26-4.55,8.21-6.28,11.73-9.17c2.29-1.88,5.39-6.95,7.04-8c4.19-2.67,8.16-1.36,8.89,3.48
				c0.67,4.48-8.72,4-13.51,7.7c-6.23,4.8-4.92,8.97-7.98,10.35C6.34,26.26,2.6,25.83,2.89,20.68z"/>
		</g>
		<path class="st33" d="M10.1,26.66c0,8.24,6.68,14.92,14.92,14.92c8.24,0,14.92-6.68,14.92-14.92c0-8.24-6.68-14.92-14.92-14.92
			C16.78,11.75,10.1,18.43,10.1,26.66z M11.56,26.66c0-7.43,6.02-13.45,13.45-13.45c7.43,0,13.45,6.02,13.45,13.45
			c0,7.43-6.02,13.45-13.45,13.45C17.59,40.11,11.56,34.09,11.56,26.66z"/>
		<path class="st34" d="M28.93,43.84c12.24-1.22,9.11-9.61,11-13.82c2.23-4.97,7.43-7.61,4.14-17.45c3.45,1.67,5.46,5.21,5.46,8.84
			c0,1.33-0.27,2.68-0.85,3.95c-0.48,1.07-1.18,2.09-2.12,3c-0.09,0.09-0.18,0.18-0.26,0.27c-1.74,1.83-2.69,4.24-2.69,6.74
			c0,0.54,0.04,1.08,0.14,1.62c0,0.01,0,0.02,0,0.03c0.28,1.6,0.16,3.13-0.27,4.51c-1.22,4-4.97,6.83-9.13,6.93c0,0,0,0,0,0
			c-0.08,0-0.16,0-0.24,0c-1.39,0-2.82-0.31-4.22-0.98c-0.11-0.05-0.22-0.11-0.33-0.17c-1.42-0.75-2.99-1.12-4.55-1.12
			c-1.56,0-3.13,0.37-4.55,1.12c-0.11,0.06-0.22,0.11-0.33,0.17c-1.47,0.71-3.17,1.1-4.46,0.98C19.52,45.47,22.46,44.48,28.93,43.84
			z"/>
		<path class="st33" d="M17.04,26.66c0,4.41,3.57,7.98,7.98,7.98c4.41,0,7.98-3.57,7.98-7.98c0-4.41-3.57-7.98-7.98-7.98
			C20.61,18.68,17.04,22.26,17.04,26.66z M17.82,26.66c0-3.97,3.22-7.2,7.2-7.2c3.97,0,7.19,3.22,7.19,7.2
			c0,3.97-3.22,7.19-7.19,7.19C21.04,33.86,17.82,30.64,17.82,26.66z"/>
		<path class="st33" d="M21.66,26.66c0,1.85,1.5,3.35,3.35,3.35c1.85,0,3.35-1.5,3.35-3.35c0-1.85-1.5-3.35-3.35-3.35
			C23.16,23.31,21.66,24.81,21.66,26.66z M21.99,26.66c0-1.67,1.35-3.02,3.02-3.02c1.67,0,3.02,1.35,3.02,3.02
			c0,1.67-1.35,3.02-3.02,3.02C23.35,29.69,21.99,28.33,21.99,26.66z"/>
		<path class="st34" d="M32.6,46.73c7.33,1.75,9.89-4.46,9.58-9.29c-0.22-3.51,0-4.98,0.78-6.71c2.23-4.97,4-4.37,5.04-7.63
			c1.04-3.26,0.47-4.8-0.93-8.24c1.59,1.81,2.46,4.16,2.46,6.56c0,1.33-0.27,2.68-0.85,3.95c-0.48,1.07-1.18,2.09-2.12,3
			c-0.09,0.09-0.18,0.18-0.26,0.27c-1.74,1.83-2.69,4.24-2.69,6.74c0,0.54,0.04,1.08,0.14,1.62c0,0.01,0,0.02,0,0.03
			c0.28,1.6,0.16,3.13-0.27,4.51c-1.22,4-4.97,6.83-9.13,6.93c0,0,0,0,0,0c-0.08,0-0.16,0-0.24,0c-1.39,0-2.82-0.31-4.22-0.98
			c-0.11-0.05-0.22-0.11-0.33-0.17c-1.42-0.75-2.99-1.12-4.55-1.12c-1.56,0-3.13,0.37-4.55,1.12C22.67,46.06,23.04,44.44,32.6,46.73
			z"/>
		<path class="st11" d="M10.38,14.68c0,0-7.8,1.92-5.99,9.59C4.39,24.28,4.63,18.61,10.38,14.68z"/>
		<path class="st11" d="M29.66,4.43c0,0-5.1-3.99-9.32,1.09C20.34,5.52,24.23,2.77,29.66,4.43z"/>
	</g>
</g>
</svg>
